<svg id="Capa_1" enable-background="new 0 0 512 512" height="512" viewBox="0 0 512 512" width="512" xmlns="http://www.w3.org/2000/svg"><g><path d="m83.342 462.888 44.99-115.357 116.675.158-60.885 155.439-12.022 4.926-25.619-25.179-3.773-12.363-11.609 6.348-37.002 1.223c-8 .264-13.664-7.738-10.755-15.195z" fill="#ff7e92"/><path d="m420.608 463.345-60.028-153.919-83.765 82.383 44.105 113.09c2.908 7.457 12.494 9.511 18.202 3.9l26.392-25.939 4.271-12.999 11.118 7 35.918 1.187z" fill="#ff7e92"/><path d="m428.637 462.888-60.028-153.918-105.642 47.331 13.848 35.508c6.455-3 12.19-7.353 16.8-12.743 10.052 5.12 21.723 6.671 33.048 4.18l38.85 99.614 6.406-6.296 8.982.297-38.925-99.805c10.138-6.237 17.567-15.787 21.149-26.782 1.298.102 2.599.098 3.899.097l49.794 127.676 1.062.035c8.002.265 13.666-7.737 10.757-15.194z" fill="#ff5f7a"/><path d="m143.37 308.97-15.039 38.561c6.586 2.352 13.594 3.29 20.542 2.743 3.582 10.995 11.012 20.544 21.149 26.781l-38.924 99.804 8.961-.296 6.422 6.311 38.857-99.633c11.323 2.486 22.989.935 33.047-4.176.899 1.05 1.873 2.028 2.854 2.998l-49.139 125.991.758.745c5.708 5.611 15.294 3.557 18.202-3.9l57.953-148.598z" fill="#ff5f7a"/><path d="m382.528 95.934 7.784-40.3c-11.428-11.428-29.121-12.685-41.985-3.866 3.225-15.26-4.707-31.125-19.638-37.31s-31.757-.575-40.268 12.495c-2.861-15.332-16.259-26.953-32.421-26.953s-29.56 11.621-32.421 26.953c-8.511-13.069-25.337-18.679-40.268-12.495-14.932 6.185-22.863 22.05-19.638 37.31-12.864-8.82-30.557-7.562-41.985 3.866-11.429 11.428-12.685 29.121-3.866 41.985-15.26-3.225-31.125 4.707-37.31 19.638s-.575 31.758 12.494 40.268c-15.332 2.861-26.953 16.26-26.953 32.421s11.621 29.56 26.953 32.421c-13.069 8.51-18.679 25.337-12.494 40.268s22.05 22.863 37.309 19.638c-8.819 12.864-7.562 30.557 3.866 41.985l38.627-9.055c26.533 20.3 59.697 32.369 95.685 32.369 87.054 0 157.626-70.571 157.626-157.625 0-35.234-11.563-67.765-31.097-94.013z" fill="#ffe077"/><path d="m379.776 189.946c0-49.026-30.341-93.435-30.341-93.435-23.912-23.911-56.947-38.701-93.435-38.701-72.977 0-132.137 59.16-132.137 132.137 0 36.488 14.79 69.523 38.702 93.435 0 0 47.799 33.032 93.435 33.032 67.739-.001 123.776-53.491 123.776-126.468z" fill="#ffd05b"/><circle cx="256" cy="189.946" fill="#ffe077" r="99.102"/><circle cx="256" cy="189.946" fill="#ffefac" r="82.585"/><path d="m445.946 189.946c0-16.162-11.621-29.56-26.953-32.421 13.069-8.51 18.679-25.337 12.494-40.268s-22.05-22.863-37.31-19.638c8.82-12.864 7.563-30.557-3.866-41.985l-1.757 1.757c-14.683 14.683-16.539 37.32-5.695 55.028 16.258 26.546 24.417 58.59 21.04 92.693-6.889 69.571-63.16 125.844-132.73 132.735-34.105 3.378-66.151-4.781-92.699-21.04-17.708-10.845-40.344-8.988-55.027 5.695l-1.757 1.757c11.428 11.429 29.121 12.685 41.985 3.866-3.225 15.26 4.706 31.125 19.638 37.31 14.931 6.185 31.757.575 40.268-12.495 2.861 15.332 16.259 26.954 32.421 26.954s29.56-11.622 32.421-26.954c8.511 13.07 25.337 18.679 40.268 12.495 14.932-6.185 22.863-22.05 19.638-37.31 12.864 8.82 30.557 7.563 41.985-3.866 11.428-11.428 12.685-29.121 3.866-41.985 15.259 3.224 31.124-4.707 37.309-19.638s.575-31.758-12.494-40.268c15.334-2.862 26.955-16.26 26.955-32.422z" fill="#ffd05b"/><path d="m347.76 119.595c17.758 23.127 26.97 53.16 22.911 85.376-6.492 51.532-48.103 93.148-99.635 99.645-32.22 4.062-62.258-5.149-85.388-22.91-6.972-5.353-16.868-4.54-23.083 1.675 27.615 27.616 67.398 43.064 110.616 37.616 58.893-7.424 106.449-54.982 113.871-113.875 5.446-43.216-10.003-82.996-37.617-110.611-6.216 6.216-7.029 16.112-1.675 23.084z" fill="#ffc244"/></g></svg>