<svg height="512pt" viewBox="0 0 512 512" width="512pt" xmlns="http://www.w3.org/2000/svg"><path d="m397.835938 302.730469c-.082032-.082031-.160157-.164063-.242188-.246094-.035156-.035156-.078125-.078125-.121094-.117187l-28.671875-28.671876c-8.058593-8.0625-18.773437-12.5-30.171875-12.5-11.328125 0-21.988281 4.386719-30.03125 12.355469-.058594.054688-.113281.113281-.171875.167969l-15.238281 15.242188-70.175781-70.179688 15.234375-15.238281c.058594-.054688.113281-.113281.167968-.167969 16.496094-16.648438 16.453126-43.613281-.140624-60.207031l-28.628907-28.632813c-.054687-.054687-.105469-.105468-.15625-.15625-8.058593-8.042968-18.765625-12.472656-30.148437-12.472656-11.347656 0-22.019532 4.402344-30.066406 12.390625-.109376.109375-.21875.21875-.324219.332031l-13.148438 13.144532c-6.917969 6.917968-12.226562 12.226562-12.433593 12.4375-20.304688 20.300781-25.050782 52.664062-13.363282 91.128906 10.703125 35.230468 34.253906 72.289062 66.308594 104.347656 44.75 44.75 99.554688 72.546875 143.019531 72.546875 21.496094 0 39.640625-6.777344 52.398438-19.539063.265625-.261718 7.605469-7.601562 16.320312-16.316406l9.542969-9.542968c.015625-.015626.03125-.03125.050781-.050782 16.394531-16.449218 16.550781-43.125.445313-59.773437-.082032-.097657-.171875-.195313-.253906-.28125zm-21.347657 38.78125c-.089843.089843-.179687.179687-.269531.273437l-9.378906 9.378906c-8.566406 8.566407-15.800782 15.800782-16.265625 16.261719-7.171875 7.171875-17.683594 10.808594-31.242188 10.808594-35.261719 0-83.070312-25.027344-121.804687-63.757813-28.636719-28.636718-49.523438-61.257812-58.820313-91.859374-8.195312-26.964844-6.054687-49.269532 5.882813-61.207032l12.421875-12.421875 13.355469-13.355469c.050781-.050781.097656-.097656.144531-.148437 2.378906-2.308594 5.503906-3.578125 8.828125-3.578125 3.339844 0 6.484375 1.285156 8.871094 3.621094.03125.035156.066406.070312.105468.105468l28.742188 28.746094c4.941406 4.941406 4.941406 12.980469 0 17.921875-.007813.007813-.015625.019531-.027344.027344v.003906l-25.84375 25.84375c-5.855469 5.859375-5.855469 15.355469 0 21.214844l91.394531 91.390625c2.8125 2.816406 6.628907 4.394531 10.605469 4.394531 3.980469 0 7.796875-1.582031 10.609375-4.394531l25.679687-25.6875c.09375-.085938.183594-.179688.273438-.269531 2.386719-2.339844 5.535156-3.628907 8.878906-3.628907 3.382813 0 6.5625 1.320313 8.957032 3.710938l28.667968 28.664062.0625.066407c.03125.03125.0625.0625.089844.09375 4.875 4.902343 4.898438 12.84375.082031 17.78125zm0 0"/><path d="m437.019531 74.980469c-48.351562-48.351563-112.636719-74.980469-181.019531-74.980469s-132.667969 26.628906-181.019531 74.980469c-48.351563 48.355469-74.980469 112.640625-74.980469 181.019531s26.628906 132.667969 74.980469 181.019531c48.351562 48.351563 112.640625 74.980469 181.019531 74.980469s132.664062-26.628906 181.019531-74.980469c48.351563-48.351562 74.980469-112.636719 74.980469-181.019531 0-68.378906-26.628906-132.664062-74.980469-181.019531zm-181.019531 407.019531c-124.617188 0-226-101.386719-226-226s101.382812-225.996094 226-226c124.617188.003906 226 101.386719 226 226-.003906 124.617188-101.386719 226-226 226zm0 0"/></svg>