<svg id="Layer_1" enable-background="new 0 0 60.4 74.7" height="74.7" viewBox="0 0 512 512" width="60.4" xmlns="http://www.w3.org/2000/svg"><g clip-rule="evenodd" fill-rule="evenodd"><g><ellipse cx="108.609" cy="113.991" fill="#60b7ff" rx="104.61" ry="104.61" transform="matrix(.707 -.707 .707 .707 -48.793 110.185)"/><circle cx="108.609" cy="113.991" fill="#8ac9fe" r="91.612"/><path d="m108.609 113.991h104.61c0 38.717-21.035 72.518-52.298 90.607z" fill="#fd4755"/><path d="m108.609 113.991h91.612c0 33.906-18.421 63.508-45.799 79.349z" fill="#fe646f"/><path d="m213.219 113.991h-104.61v-104.61c57.774 0 104.61 46.835 104.61 104.61z" fill="#ffd064"/><path d="m200.221 113.991h-91.612v-91.612c50.596 0 91.612 41.016 91.612 91.612z" fill="#ffe177"/></g><g><path d="m345.236 56.112c-4.418 0-8-3.582-8-8s3.582-8 8-8h77.383c4.418 0 8 3.582 8 8s-3.582 8-8 8zm0-33.494c-4.418 0-8-3.582-8-8s3.582-8 8-8h154.765c4.418 0 8 3.582 8 8s-3.582 8-8 8z" fill="#a79ba7"/><path d="m274.016 6.618h26.98c6.2 0 11.257 5.057 11.257 11.257v26.98c0 6.2-5.057 11.257-11.257 11.257h-26.98c-6.2 0-11.257-5.057-11.257-11.257v-26.98c0-6.2 5.057-11.257 11.257-11.257z" fill="#8ac9fe"/><path d="m345.236 138.738c-4.418 0-8-3.582-8-8s3.582-8 8-8h77.383c4.418 0 8 3.582 8 8s-3.582 8-8 8zm0-33.495c-4.418 0-8-3.582-8-8s3.582-8 8-8h154.765c4.418 0 8 3.582 8 8s-3.582 8-8 8z" fill="#a79ba7"/><path d="m274.016 89.243h26.98c6.2 0 11.257 5.057 11.257 11.257v26.98c0 6.2-5.057 11.257-11.257 11.257h-26.98c-6.2 0-11.257-5.057-11.257-11.257v-26.98c0-6.2 5.057-11.257 11.257-11.257z" fill="#ffe177"/><path d="m345.236 221.363c-4.418 0-8-3.582-8-8s3.582-8 8-8h77.383c4.418 0 8 3.582 8 8s-3.582 8-8 8zm0-33.495c-4.418 0-8-3.582-8-8s3.582-8 8-8h154.765c4.418 0 8 3.582 8 8s-3.582 8-8 8z" fill="#a79ba7"/><path d="m274.016 171.868h26.98c6.2 0 11.257 5.057 11.257 11.257v26.98c0 6.2-5.057 11.257-11.257 11.257h-26.98c-6.2 0-11.257-5.057-11.257-11.257v-26.98c0-6.2 5.057-11.257 11.257-11.257z" fill="#fe646f"/></g><g><path d="m203.013 349.732h33.219c5.508 0 10 4.492 10 10v135.651c0 5.508-4.492 10-10 10-11.073 0-22.146 0-33.219 0-5.508 0-10-4.492-10-10 0-45.217 0-90.434 0-135.651-.001-5.508 4.492-10 10-10z" fill="#ffe177"/><path d="m236.231 349.732c5.508 0 10 4.492 10 10v135.651c0 5.508-4.492 10-10 10-11.073 0-22.146 0-33.219 0-5.508 0-10-4.492-10-10v-.001h33.219c5.508 0 10-4.492 10-10z" fill="#ffd064"/><path d="m299.598 349.732h33.219c5.508 0 10 4.492 10 10v135.651c0 5.508-4.492 10-10 10-11.073 0-22.146 0-33.219 0-5.508 0-10-4.492-10-10 0-45.217 0-90.434 0-135.651 0-5.508 4.493-10 10-10z" fill="#fe646f"/><path d="m332.817 349.732c5.508 0 10 4.492 10 10v135.651c0 5.508-4.492 10-10 10-11.073 0-22.146 0-33.219 0-5.508 0-10-4.492-10-10v-.001h33.219c5.508 0 10-4.492 10-10z" fill="#fd4755"/><path d="m14.001 322.732h33.219c5.508 0 10 4.492 10 9.999v162.651c0 5.508-4.492 10-10 10-11.073 0-22.146 0-33.219 0-5.508 0-10-4.492-10-10 0-54.217 0-108.434 0-162.651 0-5.507 4.492-9.999 10-9.999z" fill="#6cf5c2"/><path d="m47.22 322.732c5.508 0 10 4.492 10 9.999v162.651c0 5.508-4.492 10-10 10-11.073 0-22.146 0-33.219 0-5.508 0-10-4.492-10-10v-.001h33.219c5.508 0 10-4.492 10-10z" fill="#00e499"/><path d="m106.427 276.028h33.219c5.508 0 10 4.492 10 10v209.354c0 5.508-4.492 10-10 10-11.073 0-22.146 0-33.219 0-5.508 0-10-4.492-10-10 0-69.785 0-139.57 0-209.354 0-5.508 4.492-10 10-10z" fill="#8ac9fe"/><path d="m139.646 276.028c5.508 0 10 4.492 10 10v209.354c0 5.508-4.492 10-10 10-11.073 0-22.146 0-33.219 0-5.508 0-10-4.492-10-10v-.001h33.219c5.508 0 10-4.492 10-10z" fill="#60b7ff"/></g><g><path d="m386.703 356.232c-4.999 7.13-10.879 13.598-17.481 19.245l47.533 46.594 18.096-18.649z" fill="#a79ba7"/><path d="m387.024 355.911c-.935 3.066-2.677 5.396-5.174 6.938l47.218 46.908 5.783-6.336z" fill="#837683"/><path d="m476.945 482.549 20.422-21.047c3.587-3.696 3.496-9.654-.199-13.241l-56.565-54.889c-3.695-3.587-9.655-3.497-13.241.198l-20.423 21.047c-3.586 3.695-3.497 9.655.2 13.241l56.565 54.888c3.696 3.588 9.654 3.5 13.241-.197z" fill="#f1ba84"/><path d="m432.235 393.373 56.565 54.889c3.696 3.587 3.786 9.544.2 13.24l-20.423 21.047c-.755.778-1.615 1.396-2.536 1.854 3.552 1.765 8.004 1.136 10.905-1.854l20.423-21.047c3.587-3.696 3.496-9.653-.2-13.241l-56.565-54.889c-2.918-2.832-7.246-3.372-10.705-1.655.839.418 1.629.969 2.336 1.656z" fill="#e3a76f"/><ellipse cx="309.514" cy="304.378" fill="#eceff1" rx="103.004" ry="103.004" transform="matrix(.707 -.707 .707 .707 -124.573 308.01)"/><path d="m309.514 201.375c56.887 0 103.004 46.116 103.004 103.004 0 56.887-46.116 103.004-103.004 103.004-1.677 0-3.343-.043-5-.123 54.564-2.608 98.004-47.671 98.004-102.881 0-55.211-43.439-100.273-98.004-102.881 1.657-.08 3.324-.123 5-.123z" fill="#d1d1d6"/></g><g><circle cx="309.514" cy="304.376" fill="#837683" r="75"/><path d="m371.18 304.376c0 15.342-4.607 29.608-12.512 41.49-3.051 4.586-6.593 8.817-10.552 12.617-11.975 11.498-27.759 19.058-45.27 20.6 2.197.194 4.42.292 6.667.292 3.644 0 7.228-.26 10.733-.762.452-.065.903-.134 1.353-.207 35.675-5.78 62.914-36.724 62.914-74.031 0-41.422-33.579-75-75-75-2.247 0-4.471.099-6.667.292 38.3 3.375 68.334 35.534 68.334 74.709z" fill="#685e68"/><path d="m309.514 311.609c-27.017 0-49.26 20.471-52.077 46.74 13.49 13.019 31.848 21.027 52.076 21.027 3.644 0 7.228-.26 10.733-.762 15.951-2.286 30.28-9.593 41.34-20.267-2.811-26.274-25.051-46.738-52.072-46.738z" fill="#8ac9fe"/><path d="m302.848 312.029c31.176 3.962 43.74 27.552 46.628 55.822 4.361-2.752 8.418-5.94 12.11-9.504-2.812-26.275-25.052-46.738-52.073-46.738-2.257 0-4.482.143-6.665.42z" fill="#60b7ff"/><circle cx="309.514" cy="281.169" fill="#f6dccd" r="26.481"/><path d="m329.328 281.169c0 13.496-10.096 24.634-23.147 26.273 1.092.137 2.204.208 3.333.208 14.625 0 26.481-11.856 26.481-26.481s-11.856-26.481-26.481-26.481c-1.129 0-2.242.071-3.333.208 13.051 1.64 23.147 12.777 23.147 26.273z" fill="#f1cbbc"/></g></g></svg>