<svg id="Layer_1" enable-background="new 0 0 512 512" height="512" viewBox="0 0 512 512" width="512" xmlns="http://www.w3.org/2000/svg"><g clip-rule="evenodd" fill-rule="evenodd"><g><path d="m126.963 344.559h-36.676c-6.468 0-11.743 5.275-11.743 11.743v105.798c0 6.468 5.275 11.743 11.743 11.743h36.676c6.468 0 11.743-5.275 11.743-11.743v-105.798c0-6.467-5.275-11.743-11.743-11.743z" fill="#fe646f"/><path d="m126.963 344.559h-11.744c6.468 0 11.743 5.275 11.743 11.743v105.798c0 6.468-5.275 11.743-11.743 11.743h11.744c6.468 0 11.743-5.275 11.743-11.743v-105.797c0-6.468-5.275-11.744-11.743-11.744z" fill="#fd4755"/><path d="m238.675 270.071h-36.676c-6.468 0-11.743 5.275-11.743 11.743v180.287c0 6.468 5.275 11.743 11.743 11.743h36.676c6.468 0 11.744-5.275 11.744-11.743v-180.287c-.001-6.467-5.276-11.743-11.744-11.743z" fill="#ffe177"/><path d="m238.675 270.071h-11.744c6.468 0 11.743 5.275 11.743 11.743v180.286c0 6.468-5.275 11.743-11.743 11.743h11.744c6.468 0 11.743-5.275 11.743-11.743v-180.285c0-6.468-5.275-11.744-11.743-11.744z" fill="#ffd064"/><path d="m350.389 295.147c-12.226 0-24.451 0-36.677 0-6.468 0-11.744 5.275-11.743 11.744v155.21c-.001 6.468 5.275 11.744 11.743 11.744h36.677c6.468 0 11.744-5.276 11.743-11.744 0-58.77 0-96.439 0-155.21 0-6.469-5.275-11.744-11.743-11.744z" fill="#6cf5c2"/><path d="m350.389 295.147h-11.744c6.468 0 11.744 5.276 11.743 11.744v155.21c.001 6.468-5.275 11.744-11.743 11.744h11.744c6.468 0 11.744-5.276 11.743-11.744 0-58.77 0-96.44 0-155.21 0-6.469-5.275-11.744-11.743-11.744z" fill="#00e499"/><path d="m462.1 191.152h-36.677c-6.468 0-11.743 5.275-11.743 11.743v259.205c0 6.468 5.275 11.743 11.743 11.743h36.677c6.468 0 11.743-5.275 11.743-11.743v-259.204c0-6.469-5.275-11.744-11.743-11.744z" fill="#8ac9fe"/><path d="m462.1 191.152h-11.744c6.468 0 11.743 5.275 11.743 11.743v259.205c0 6.468-5.275 11.743-11.743 11.743h11.744c6.468 0 11.743-5.275 11.743-11.743v-259.204c0-6.469-5.275-11.744-11.743-11.744z" fill="#60b7ff"/><path d="m42.904 462.099h453.096v26.904h-480v-445.193h26.904z" fill="#a79ba7"/><path d="m113.533 288.509c-3.469 2.709-8.478 2.094-11.188-1.375-2.709-3.469-2.094-8.478 1.375-11.188l111.712-86.986c2.159-1.687 4.916-2.084 7.342-1.308l.001-.005 107.065 34.701 92.898-93.691-14.654 1.285c-4.401.38-8.277-2.881-8.656-7.281-.379-4.401 2.881-8.277 7.281-8.656l36.365-3.189c4.401-.38 8.277 2.881 8.656 7.281.06.7.028 1.387-.086 2.049l-4.002 35.792c-.483 4.384-4.429 7.546-8.813 7.063s-7.546-4.429-7.062-8.813l1.509-13.5-95.57 96.386c-2.046 2.054-5.143 2.916-8.094 1.969l-107.716-34.913z" fill="#a79ba7"/><circle cx="220.339" cy="195.241" fill="#ffe177" r="22.5"/><path d="m220.339 172.742c-1.592 0-3.145.166-4.644.481 10.198 2.139 17.856 11.185 17.856 22.019s-7.658 19.879-17.856 22.019c1.499.314 3.052.481 4.644.481 12.426 0 22.5-10.074 22.5-22.5 0-12.427-10.074-22.5-22.5-22.5z" fill="#ffd064"/><path d="m332.052 253.948c12.393 0 22.5-10.107 22.5-22.5s-10.108-22.5-22.5-22.5-22.5 10.107-22.5 22.5c-.001 12.393 10.107 22.5 22.5 22.5z" fill="#6cf5c2"/><path d="m332.052 208.948c-1.592 0-3.145.166-4.644.481 10.198 2.14 17.856 11.185 17.856 22.019s-7.658 19.879-17.856 22.019c1.499.314 3.052.481 4.644.481 12.426 0 22.5-10.074 22.5-22.5s-10.074-22.5-22.5-22.5z" fill="#00e499"/></g><g><path d="m112.372 102.026h28.106c5.101 0 9.274 4.174 9.274 9.274v28.106c0 5.101-4.173 9.274-9.274 9.274h-28.106c-5.101 0-9.274-4.174-9.274-9.274v-28.106c0-5.101 4.173-9.274 9.274-9.274z" fill="#ffe177"/><path d="m139.752 102.026h.726c5.101 0 9.274 4.174 9.274 9.274v28.106c0 5.101-4.173 9.274-9.274 9.274h-28.106c-5.101 0-9.274-4.174-9.274-9.274v-.726h27.38c5.101 0 9.274-4.173 9.274-9.274z" fill="#ffd064"/></g><g><path d="m112.372 24.334h28.106c5.101 0 9.274 4.174 9.274 9.274v28.106c0 5.101-4.173 9.274-9.274 9.274h-28.106c-5.101 0-9.274-4.174-9.274-9.274v-28.105c0-5.101 4.173-9.275 9.274-9.275z" fill="#fe646f"/><path d="m139.752 24.334h.726c5.101 0 9.274 4.174 9.274 9.274v28.106c0 5.101-4.173 9.274-9.274 9.274h-28.106c-5.101 0-9.274-4.174-9.274-9.274v-.726h27.38c5.101 0 9.274-4.173 9.274-9.274z" fill="#fd4755"/></g><path d="m189.944 38.997c-4.418 0-8-3.582-8-8s3.582-8 8-8h111.492c4.418 0 8 3.582 8 8s-3.582 8-8 8zm0 77.691c-4.418 0-8-3.582-8-8s3.582-8 8-8h111.492c4.418 0 8 3.582 8 8s-3.582 8-8 8zm0 33.329c-4.418 0-8-3.582-8-8s3.582-8 8-8h111.492c4.418 0 8 3.582 8 8s-3.582 8-8 8zm0-77.691c-4.418 0-8-3.582-8-8s3.582-8 8-8h111.492c4.418 0 8 3.582 8 8s-3.582 8-8 8z" fill="#a79ba7"/></g></svg>