<svg height="512" viewBox="0 0 48 48" width="512" xmlns="http://www.w3.org/2000/svg" xmlns:xlink="http://www.w3.org/1999/xlink"><linearGradient id="linear-gradient" gradientUnits="userSpaceOnUse" x1="24" x2="24" y1="1.425" y2="46.908"><stop offset="0" stop-color="#e8f5ff"/><stop offset="1" stop-color="#b4dfff"/></linearGradient><linearGradient id="linear-gradient-2" gradientUnits="userSpaceOnUse" x1="24" x2="24" y1="9" y2="37.621"><stop offset="0" stop-color="#466aff"/><stop offset="1" stop-color="#06b8ff"/></linearGradient><g id="Layer_2" data-name="Layer 2"><path d="m46.4062 10.7173a9.683 9.683 0 0 0 -9.124-9.124 235.4011 235.4011 0 0 0 -26.5639 0 9.6839 9.6839 0 0 0 -9.1245 9.124 235.41 235.41 0 0 0 0 26.5644 9.684 9.684 0 0 0 9.1245 9.1241 234.815 234.815 0 0 0 26.5639 0 9.6831 9.6831 0 0 0 9.124-9.1241 235.41 235.41 0 0 0 0-26.5644z" fill="url(#linear-gradient)"/></g><g id="Layer_3" fill="url(#linear-gradient-2)" data-name="Layer 3"><path d="m27.7373 11.2622a2.253 2.253 0 0 0 -2.2373-2.0122h-3a2.253 2.253 0 0 0 -2.2373 2.0122 2.2532 2.2532 0 0 0 -2.0127 2.2378v1a2.2528 2.2528 0 0 0 2.25 2.25h7a2.2528 2.2528 0 0 0 2.25-2.25v-1a2.2532 2.2532 0 0 0 -2.0127-2.2378z"/><path d="m25.25 27v-4.25h-2.5v4.25a.75.75 0 0 1 -.75.75h-1.543l3.543 4.96 3.543-4.96h-1.543a.75.75 0 0 1 -.75-.75z"/><path d="m32 13.25h-.76c.01.08.01 1.25.01 1.25a3.7514 3.7514 0 0 1 -3.75 3.75h-7a3.7514 3.7514 0 0 1 -3.75-3.75s0-1.17.01-1.25h-.76a3.7514 3.7514 0 0 0 -3.75 3.75v18a3.7514 3.7514 0 0 0 3.75 3.75h16a3.7514 3.7514 0 0 0 3.75-3.75v-18a3.7514 3.7514 0 0 0 -3.75-3.75zm-2.39 14.19-5 7a.7552.7552 0 0 1 -1.22 0l-5-7a.7508.7508 0 0 1 .61-1.19h2.25v-4.25a.7555.7555 0 0 1 .75-.75h4a.7555.7555 0 0 1 .75.75v4.25h2.25a.7508.7508 0 0 1 .61 1.19z"/></g></svg>