<svg id="Capa_1" enable-background="new 0 0 512 512" height="512" viewBox="0 0 512 512" width="512" xmlns="http://www.w3.org/2000/svg"><g><path d="m512 55c0-30.376-24.624-55-55-55h-80c-8.284 0-15 6.716-15 15v95h135c8.284 0 15-6.716 15-15z" fill="#ff6426"/><path d="m55 0c-30.376 0-55 24.624-55 55v40c0 8.284 6.716 15 15 15h362v-110z" fill="#beebfa"/><path d="m256 0h121v110h-121z" fill="#7ed8f7"/><path d="m0 95v362c0 30.327 24.673 55 55 55h402c30.327 0 55-24.673 55-55v-362z" fill="#fff5f5"/><path d="m256 95v417h201c30.327 0 55-24.673 55-55v-362z" fill="#ebe1dc"/><g><path d="m221 368h-160c-8.284 0-15-6.716-15-15 0-52.383 42.617-95 95-95s95 42.617 95 95c0 8.284-6.716 15-15 15z" fill="#beebfa"/><g><path d="m141 258v110h80c8.284 0 15-6.716 15-15 0-52.383-42.617-95-95-95z" fill="#7ed8f7"/></g><path d="m141 273c-26.234 0-47.5-21.266-47.5-47.5v-20c0-26.234 21.266-47.5 47.5-47.5 26.234 0 47.5 21.266 47.5 47.5v20c0 26.234-21.266 47.5-47.5 47.5z" fill="#ffdecf"/></g><g><g><path d="m141 158v115c26.234 0 47.5-21.266 47.5-47.5v-20c0-26.234-21.266-47.5-47.5-47.5z" fill="#ffbeaa"/></g></g><g><path d="m206 434h-130c-8.284 0-15-6.716-15-15s6.716-15 15-15h130c8.284 0 15 6.716 15 15s-6.716 15-15 15z" fill="#828282"/></g><g><path d="m386 178-15 95 15 95c52.383 0 95-42.617 95-95s-42.617-95-95-95z" fill="#7ed8f7"/><g><path d="m303.746 320.489c16.449 28.38 47.158 47.511 82.254 47.511v-95h-82.254z" fill="#ffed28"/><path d="m386 273v-95c-52.383 0-95 42.617-95 95 0 17.288 4.644 33.51 12.746 47.489z" fill="#ff6426"/></g><path d="m451 434h-130c-8.284 0-15-6.716-15-15s6.716-15 15-15h130c8.284 0 15 6.716 15 15s-6.716 15-15 15z" fill="#5a5a5a"/></g></g></svg>