<svg xmlns="http://www.w3.org/2000/svg" xmlns:xlink="http://www.w3.org/1999/xlink" viewBox="0 0 445.82 454.1"><defs><style>.cls-1{fill:#f9c33e;}.cls-2{fill:none;}.cls-3{isolation:isolate;}.cls-4{fill:#1a1a1a;}.cls-5{fill:url(#linear-gradient);}.cls-6{fill:url(#radial-gradient);}.cls-7{fill:url(#radial-gradient-2);}.cls-8{clip-path:url(#clip-path);}.cls-9{fill:#7e5923;opacity:0.41;}.cls-16,.cls-9{mix-blend-mode:overlay;}.cls-10{fill:#fedfb1;}.cls-10,.cls-16{opacity:0.29;}.cls-10,.cls-19{mix-blend-mode:soft-light;}.cls-11{fill:#272626;}.cls-12{fill:#636363;}.cls-13{clip-path:url(#clip-path-2);}.cls-14{fill:#f9af3d;}.cls-15{clip-path:url(#clip-path-3);}.cls-16{fill:#181818;}.cls-17{fill:#474747;}.cls-18{clip-path:url(#clip-path-4);}.cls-19{fill:#c1c0c0;opacity:0.59;}.cls-20{clip-path:url(#clip-path-6);}.cls-21{fill:url(#linear-gradient-2);}.cls-22{fill:url(#linear-gradient-3);}.cls-23{fill:url(#linear-gradient-4);}.cls-24{fill:url(#linear-gradient-5);}.cls-25{fill:url(#linear-gradient-6);}.cls-26{fill:url(#linear-gradient-7);}</style><linearGradient id="linear-gradient" x1="185.53" y1="77.98" x2="260.21" y2="77.98" gradientUnits="userSpaceOnUse"><stop offset="0" stop-color="#f05024"/><stop offset="1" stop-color="#f99f1c"/></linearGradient><radialGradient id="radial-gradient" cx="351.8" cy="319.47" r="47.4" gradientUnits="userSpaceOnUse"><stop offset="0" stop-color="#29a64a"/><stop offset="0.25" stop-color="#25a14d"/><stop offset="0.55" stop-color="#1b9358"/><stop offset="0.85" stop-color="#0a7d68"/><stop offset="1" stop-color="#006f72"/></radialGradient><radialGradient id="radial-gradient-2" cx="94.65" cy="319.47" r="57.25" gradientUnits="userSpaceOnUse"><stop offset="0" stop-color="#0099d9"/><stop offset="0.06" stop-color="#0395d3"/><stop offset="0.7" stop-color="#256497"/><stop offset="1" stop-color="#32517f"/></radialGradient><clipPath id="clip-path" transform="translate(0 12.59)"><path class="cls-1" d="M182.44,36.49s-3.58,4.15-7.08,3.46c-.06-.26.41-.53.35-.8a.49.49,0,0,0-.11-.18l-.42-.5a.42.42,0,0,1-.1-.17.41.41,0,0,1,0-.16,2.14,2.14,0,0,1,.25-.53.64.64,0,0,0,.08-.19.29.29,0,0,0-.17-.23,1.37,1.37,0,0,0-.29-.07,1,1,0,0,1-.33-.14.3.3,0,0,1-.16-.17s0-.08,0-.11c0-.18-.23-.3-.2-.48a1,1,0,0,1,.25-.48,1,1,0,0,1,.25-.13,14.58,14.58,0,0,1,4.29-.89,6.89,6.89,0,0,1,3,.32c.1.23.23.43.33.67a.54.54,0,0,1,.07.35s-.05.1,0,.15,0,0,0,.07S182.46,36.49,182.44,36.49Z"/></clipPath><clipPath id="clip-path-2" transform="translate(0 12.59)"><path class="cls-2" d="M197.88,6.74c-1.3.75-3.15,2.42-5,6.1-2.31,4.61-3.69,12.33-5.76,17-1.92,4.36-4.17,6-4.17,6s-1.93-.33-.83-1.44c3.33-3.36,5.09-9.2,5.63-12.34,1.2-6.94,5.65-16.58,8.8-17.6,3.5-1.13,5,1.07,5,1.07Z"/></clipPath><clipPath id="clip-path-3" transform="translate(0 12.59)"><path class="cls-2" d="M168,16.46l29.82-9.67,3.76-1.22L218.68,0A.58.58,0,0,1,219,0l50,11.79a.58.58,0,0,1,.45.55.59.59,0,0,1-.4.59l-42.78,13.9a.42.42,0,0,1-.22,0H226l-57.94-9.27a.6.6,0,0,1-.5-.54A.59.59,0,0,1,168,16.46Z"/></clipPath><clipPath id="clip-path-4" transform="translate(0 12.59)"><path class="cls-2" d="M220.51,11.85c10.82-.1,20.17,1.18,24.54,3.13l.2,4.95.52,12.73c0-1.82-11.31-3.19-25.22-3.06-13.33.13-24.22,1.59-25.09,3.31h-.06l-.34-13L195,16C198.64,13.7,208.68,12,220.51,11.85Z"/></clipPath><clipPath id="clip-path-6" transform="translate(0 12.59)"><ellipse class="cls-2" cx="182.17" cy="35.36" rx="1.37" ry="1.45" transform="translate(135.21 214.88) rotate(-86.33)"/></clipPath><linearGradient id="linear-gradient-2" x1="66.09" y1="97.19" x2="177.11" y2="97.19" gradientUnits="userSpaceOnUse"><stop offset="0" stop-color="#f05024"/><stop offset="0.28" stop-color="#f26222"/><stop offset="0.85" stop-color="#f7921d"/><stop offset="1" stop-color="#f99f1c"/></linearGradient><linearGradient id="linear-gradient-3" x1="233.18" y1="152.91" x2="379.66" y2="152.91" xlink:href="#linear-gradient-2"/><linearGradient id="linear-gradient-4" x1="327.72" y1="221.47" x2="445.82" y2="221.47" xlink:href="#radial-gradient"/><linearGradient id="linear-gradient-5" x1="173.56" y1="328.16" x2="340.59" y2="328.16" xlink:href="#radial-gradient"/><linearGradient id="linear-gradient-6" y1="220.96" x2="246.93" y2="220.96" gradientUnits="userSpaceOnUse"><stop offset="0" stop-color="#0099d9"/><stop offset="0.19" stop-color="#0494d2"/><stop offset="0.45" stop-color="#1085c0"/><stop offset="0.75" stop-color="#236da2"/><stop offset="1" stop-color="#355685"/></linearGradient><linearGradient id="linear-gradient-7" x1="106.66" y1="382.28" x2="208.32" y2="382.28" xlink:href="#linear-gradient-6"/></defs><g class="cls-3"><g id="Layer_2" data-name="Layer 2"><g id="Layer_1-2" data-name="Layer 1"><path class="cls-4" d="M220.55,29.6c13.91-.13,25.2,1.24,25.22,3.06s-11.25,3.4-25.15,3.53-25.2-1.23-25.22-3a.6.6,0,0,1,.06-.23C196.33,31.19,207.22,29.73,220.55,29.6Z" transform="translate(0 12.59)"/><path class="cls-4" d="M220.55,29.6c13.91-.13,25.2,1.24,25.22,3.06s-11.25,3.4-25.15,3.53-25.2-1.23-25.22-3a.6.6,0,0,1,.06-.23C196.33,31.19,207.22,29.73,220.55,29.6Z" transform="translate(0 12.59)"/><circle class="cls-5" cx="222.87" cy="77.98" r="37.34"/><circle class="cls-6" cx="351.8" cy="319.47" r="37.34"/><circle class="cls-7" cx="94.65" cy="319.47" r="37.34"/><path class="cls-1" d="M182.44,36.49s-3.58,4.15-7.08,3.46c-.06-.26.41-.53.35-.8a.49.49,0,0,0-.11-.18l-.42-.5a.42.42,0,0,1-.1-.17.41.41,0,0,1,0-.16,2.14,2.14,0,0,1,.25-.53.64.64,0,0,0,.08-.19.29.29,0,0,0-.17-.23,1.37,1.37,0,0,0-.29-.07,1,1,0,0,1-.33-.14.3.3,0,0,1-.16-.17s0-.08,0-.11c0-.18-.23-.3-.2-.48a1,1,0,0,1,.25-.48,1,1,0,0,1,.25-.13,14.58,14.58,0,0,1,4.29-.89,6.89,6.89,0,0,1,3,.32c.1.23.23.43.33.67a.54.54,0,0,1,.07.35s-.05.1,0,.15,0,0,0,.07S182.46,36.49,182.44,36.49Z" transform="translate(0 12.59)"/><g class="cls-8"><path class="cls-9" d="M174.86,37.74s5.51-1.62,6.88-2.33-8.45,2-8.45,2Z" transform="translate(0 12.59)"/><path class="cls-9" d="M182,36.13s-5,4-7,3.15l-.26-.39s6-1.68,7.18-3.12S182,36.13,182,36.13Z" transform="translate(0 12.59)"/><path class="cls-10" d="M174.68,38.38s5.85-1.48,7.34-2.7c0,0-7.42,2.61-7.85,2.71S174.68,38.38,174.68,38.38Z" transform="translate(0 12.59)"/><path class="cls-10" d="M181.28,35.06s-6.78.41-7.6,1.15,7.68-1,7.68-1Z" transform="translate(0 12.59)"/><path class="cls-10" d="M181.08,34.92s-7.21.3-8,.75c0,0,6.34-1.72,8.21-1.07S181.08,34.92,181.08,34.92Z" transform="translate(0 12.59)"/><path class="cls-10" d="M181.9,36.51s-3.57,4.23-6.79,3.22,2.24,2.54,2.24,2.54S184.53,36.89,181.9,36.51Z" transform="translate(0 12.59)"/></g><path class="cls-11" d="M168,16.46l29.82-9.67,3.76-1.22L218.68,0A.58.58,0,0,1,219,0l50,11.79a.58.58,0,0,1,.45.55.59.59,0,0,1-.4.59l-42.78,13.9a.42.42,0,0,1-.22,0H226l-57.94-9.27a.6.6,0,0,1-.5-.54A.59.59,0,0,1,168,16.46Z" transform="translate(0 12.59)"/><path class="cls-12" d="M168,16.46l29.82-9.67,3.76-1.22L218.68,0A.58.58,0,0,1,219,0l50,11.79a.58.58,0,0,1,.45.55.59.59,0,0,1-.37.57L219.42,1.22a.7.7,0,0,0-.32,0L202,6.78,198.24,8l-29.81,9.66-.34-.05a.6.6,0,0,1-.5-.54A.59.59,0,0,1,168,16.46Z" transform="translate(0 12.59)"/><path class="cls-1" d="M197.82,6.79c-1.31.75-3.09,2.37-4.94,6.05-2.31,4.61-3.69,12.33-5.76,17-1.92,4.36-4.17,6-4.17,6s-1.93-.33-.83-1.44c3.33-3.36,5.09-9.2,5.63-12.34,1.2-6.94,5.65-16.58,8.8-17.6,3.5-1.13,5,1.11,5,1.11Z" transform="translate(0 12.59)"/><g class="cls-13"><path class="cls-14" d="M184.44,35.6s-.11-4.8-.32-5.4S185.56,28,185.56,28s.57,5.54.17,6.61A1.37,1.37,0,0,1,184.44,35.6Z" transform="translate(0 12.59)"/><path class="cls-14" d="M187.67,29.84s-.57-3.57-1.55-4.06,1-4,1-4,2.32,3.18,2,5.47S187.67,29.84,187.67,29.84Z" transform="translate(0 12.59)"/><path class="cls-14" d="M190.57,23.34S188,19,188.19,17.84a17.84,17.84,0,0,1,1.37-3.61s1.08,6,1.57,6.2S190.57,23.34,190.57,23.34Z" transform="translate(0 12.59)"/><path class="cls-14" d="M192.35,15.84s-.94-5.57-.75-7.2a3.64,3.64,0,0,1,1.76-2.49s.48,6.21,1.52,6.36S192.35,15.84,192.35,15.84Z" transform="translate(0 12.59)"/><path class="cls-14" d="M196.44,9.2s-1.36-4.33-.7-6.1,3.84.42,3.84.42-2.68,1.13-2.05,3.82S196.44,9.2,196.44,9.2Z" transform="translate(0 12.59)"/></g><ellipse class="cls-14" cx="182.17" cy="35.36" rx="1.37" ry="1.45" transform="translate(135.21 227.47) rotate(-86.33)"/><g class="cls-15"><path class="cls-16" d="M219.48-6.43,217.87,18.7,215,47.28,151.8,15.46S197-28.4,219.48-6.43Z" transform="translate(0 12.59)"/></g><path class="cls-17" d="M220.51,11.85c10.82-.1,20.17,1.18,24.54,3.13l.2,4.95.52,12.73c0-1.82-11.31-3.19-25.22-3.06-13.33.13-24.22,1.59-25.09,3.31h-.06l-.34-13L195,16C198.64,13.7,208.68,12,220.51,11.85Z" transform="translate(0 12.59)"/><path class="cls-12" d="M220.44,28.75c12.51-.12,23.23,1.09,25.28,2.66l.05,1.25c0-1.82-11.31-3.19-25.22-3.06-13.33.13-24.22,1.59-25.09,3.31h-.06l0-1C197.47,30.34,208,28.87,220.44,28.75Z" transform="translate(0 12.59)"/><path class="cls-17" d="M220.51,11.85c10.82-.1,20.17,1.18,24.54,3.13l.2,4.95.52,12.73c0-1.82-11.31-3.19-25.22-3.06-13.33.13-24.22,1.59-25.09,3.31h-.06l-.34-13L195,16C198.64,13.7,208.68,12,220.51,11.85Z" transform="translate(0 12.59)"/><g class="cls-18"><path class="cls-16" d="M221,10.57S214.2,26,217.08,32.27s-25.51,3-25.51,3l-.82-19.9S213.37,6.13,221,10.57Z" transform="translate(0 12.59)"/></g><g class="cls-18"><path class="cls-19" d="M236.48,10c4.2,4.53,4.72,21.24,3.3,23.67s-7.47-.14-7.47-.14,2-20.7-1.87-24.68c-1.81-1.88,4-1.12,4-1.12S235.87,9.31,236.48,10Z" transform="translate(0 12.59)"/></g><g class="cls-20"><path class="cls-9" d="M183.63,34.2s-.7,3-2.32,2.42,1.52-2.76,1.75-2.75a19.14,19.14,0,0,0-2-1l-2.53,2.41,2.1,4,4.76-.71S184.48,33.71,183.63,34.2Z" transform="translate(0 12.59)"/></g><ellipse class="cls-10" cx="182.33" cy="34.87" rx="0.77" ry="0.89" transform="translate(135.86 227.18) rotate(-86.33)"/><path class="cls-21" d="M175.07,65.39a47.92,47.92,0,0,1,1.72-12.75H66.09l51.43,89.09h30.7l-36.08-62.5h65A47.52,47.52,0,0,1,175.07,65.39Z" transform="translate(0 12.59)"/><path class="cls-22" d="M269,52.64a48,48,0,0,1-.32,26.59h65l-100.43,174h30.7L379.66,52.64Z" transform="translate(0 12.59)"/><path class="cls-23" d="M343,169.72l-15.24,26.66,72.17-.31L363.1,260.42a47.59,47.59,0,0,1,23.06,13.23l59.66-104.37Z" transform="translate(0 12.59)"/><path class="cls-24" d="M290,388.34,188.8,214.81l-15.24,26.66,116.65,200,50.38-88.15a47.53,47.53,0,0,1-23.08-13.18Z" transform="translate(0 12.59)"/><path class="cls-25" d="M246.93,195.1l-15.37-26.58L0,168.65,60.54,273.39a47.64,47.64,0,0,1,23.17-13.05L46.06,195.21Z" transform="translate(0 12.59)"/><path class="cls-26" d="M156.9,387l-27.38-47.37a47.61,47.61,0,0,1-22.86,13.58l50.27,87L208.32,351,193,324.43Z" transform="translate(0 12.59)"/></g></g></g></svg>