<svg id="Capa_1" enable-background="new 0 0 512 512" height="512" viewBox="0 0 512 512" width="512" xmlns="http://www.w3.org/2000/svg"><g><g><path d="m256 110.002 11.521 15.503-11.521 14.496c-34.135 0-61.899 27.81-61.899 61.999v23.75c0 8.29-6.709 15-14.976 15s-14.976-6.71-14.976-15v-23.75c0-50.729 41.203-91.998 91.851-91.998z" fill="#ffe666"/></g><path d="m347.851 202.001v23.75c0 8.29-6.709 15-14.976 15s-14.976-6.71-14.976-15v-23.75c0-34.19-27.765-61.999-61.899-61.999v-30c50.648 0 91.851 41.269 91.851 91.999z" fill="#ffc34d"/><g><path d="m256 210.751 53.666 105.079-53.666 72.169h-73.98c-22.693 0-41.163-18.5-41.163-41.24v-94.769c0-22.74 18.47-41.24 41.163-41.24h73.98z" fill="#ff884d"/></g><path d="m371.143 251.99v94.769c0 22.74-18.47 41.24-41.163 41.24h-73.98v-177.248h73.98c22.693 0 41.163 18.499 41.163 41.239z" fill="#f53"/><path d="m233.601 38.519c-.037-5.081-2.883-9.971-7.224-12.578l-39.357-23.782c-7.083-4.28-16.287-1.999-20.559 5.095s-1.995 16.313 5.087 20.592l8.751 5.288c-39.818 13.593-75.656 37.836-103.289 70.338-36.118 42.484-56.01 96.653-56.01 152.528s19.892 110.044 56.011 152.528c35.707 41.999 85.109 70.223 139.106 79.472.855.146 1.704.217 2.543.217 7.162 0 13.495-5.164 14.743-12.474 1.394-8.166-4.084-15.917-12.236-17.314-47.09-8.067-90.187-32.696-121.352-69.352-31.511-37.061-48.864-84.322-48.864-133.077s17.353-96.016 48.863-133.078c23.75-27.935 54.433-48.874 88.529-60.832l-5.311 9.443c-4.06 7.218-1.51 16.365 5.696 20.431 2.324 1.311 4.847 1.934 7.337 1.934 5.231 0 10.31-2.75 13.061-7.64l22.509-40.017c1.31-2.346 2.047-5.028 1.966-7.722z" fill="#404a80"/><path d="m434.989 103.472c-35.707-41.999-85.109-70.223-139.106-79.472-8.155-1.395-15.892 4.091-17.286 12.256-1.394 8.166 4.084 15.917 12.236 17.314 47.09 8.067 90.187 32.696 121.352 69.352 31.51 37.062 48.863 84.324 48.863 133.078s-17.353 96.016-48.863 133.078c-23.75 27.935-54.433 48.874-88.529 60.832l5.311-9.443c4.06-7.218 1.51-16.365-5.696-20.431-7.206-4.064-16.338-1.512-20.398 5.706l-22.509 40.017c-4.05 6.812-1.592 16.322 5.259 20.3l39.357 23.782c2.42 1.462 5.087 2.159 7.722 2.159 5.074 0 10.025-2.584 12.837-7.254 4.272-7.094 1.995-16.313-5.087-20.592l-8.751-5.288c39.818-13.593 75.656-37.836 103.289-70.338 36.118-42.484 56.01-96.652 56.01-152.528s-19.892-110.044-56.011-152.528z" fill="#283366"/><g><path d="m256 274 9.788 23.711-9.788 27.038c-8.267 0-14.976-6.71-14.976-15v-20.749c0-8.28 6.709-15 14.976-15z" fill="#e6f7ff"/></g><path d="m270.976 289v20.75c0 8.29-6.709 15-14.976 15v-50.75c8.267 0 14.976 6.72 14.976 15z" fill="#cef"/></g></svg>