<svg height="512" viewBox="0 0 64 64" width="512" xmlns="http://www.w3.org/2000/svg" xmlns:xlink="http://www.w3.org/1999/xlink"><linearGradient id="linear-gradient" gradientUnits="userSpaceOnUse" x1="3.4" x2="60.6" y1="32" y2="32"><stop offset="0" stop-color="#5bb4f6"/><stop offset=".61" stop-color="#2191e5"/><stop offset="1" stop-color="#007edb"/></linearGradient><linearGradient id="linear-gradient-2" x1="28.4" x2="37.12" xlink:href="#linear-gradient" y1="22.49" y2="22.49"/><g id="Layer_38" data-name="Layer 38"><path d="m32 3.4a28.59 28.59 0 0 0 -28.6 28.6 28.59 28.59 0 0 0 28.6 28.6 28.59 28.59 0 0 0 28.6-28.6 28.59 28.59 0 0 0 -28.6-28.6zm14.41 46.41h-1.76l-9.44-9.44 5.29-5.3 9.31 9.31v2a3.41 3.41 0 0 1 -3.4 3.43zm-3.46 0h-25.36a3.41 3.41 0 0 1 -3.4-3.4v-5.72l9.81-9.82zm-2-16a.61.61 0 0 0 -.85 0l-5.72 5.72-9.94-9.93a.59.59 0 0 0 -.85 0l-9.4 9.4v-21.41a3.41 3.41 0 0 1 3.4-3.4h28.82a3.41 3.41 0 0 1 3.4 3.4v25.09z" fill="url(#linear-gradient)"/><path d="m32.76 18.13a4.36 4.36 0 1 0 4.36 4.36 4.36 4.36 0 0 0 -4.36-4.36zm0 7.52a3.16 3.16 0 1 1 3.16-3.16 3.15 3.15 0 0 1 -3.16 3.16z" fill="url(#linear-gradient-2)"/></g></svg>