<svg id="Layer_1" enable-background="new 0 0 512 512" height="512" viewBox="0 0 512 512" width="512" xmlns="http://www.w3.org/2000/svg"><g id="XMLID_2_"><g id="XMLID_2975_"><path id="XMLID_1423_" d="m210.5 507 25.5-18.5 25.5 18.5v-143h-51z" fill="#2d1123"/><path id="XMLID_2862_" clip-rule="evenodd" d="m210.5 364h51v101.5h-51z" fill="#2d0223" fill-rule="evenodd"/><path id="XMLID_1428_" d="m128 125v168c0 26.5 57.3 48 128 48s128-21.5 128-48v-168z" fill="#db332a"/><path id="XMLID_710_" d="m384 293v-168h-256v58.8l128 157.2 23-.8c59.7-4 105-23.6 105-47.2z" fill="#b5100b"/><path id="XMLID_1439_" d="m5 404c0-22.1 17.9-40 40-40h422c22.1 0 40 17.9 40 40 0 22.1-17.9 40-40 40h-422c-22.1 0-40-17.9-40-40z" fill="#f8d700"/><path id="XMLID_1467_" d="m5 404c0 22.1 17.9 40 40 40h422c22.1 0 40-17.9 40-40z" fill="#f8b700"/><path id="XMLID_1438_" d="m427 404c0-22.1 17.9-40 40-40 22.1 0 40 17.9 40 40 0 22.1-17.9 40-40 40-22.1 0-40-17.9-40-40z" fill="#db9c00"/><path id="XMLID_1437_" d="m233.2 432.3c7.2 7.2 17.2 11.7 28.3 11.7h-51c-22.1 0-40-17.9-40-40s17.9-40 40-40h51c-22.1 0-40 17.9-40 40 0 11 4.5 21 11.7 28.3z" fill="#2d1123"/><path id="XMLID_1429_" d="m256 5 251 120-251 120-251-120z" fill="#db332a"/><path id="XMLID_657_" d="m384 293c0 26.5-57.3 48-128 48s-128-21.5-128-48v-48c0 26.5 57.3 48 128 48s128-21.5 128-48z" fill="#bebf25"/><path id="XMLID_496_" d="m256 293c-14.4 0-28.2-.9-41.1-2.5l41.1 50.5c30.3-1 60.6-3.1 89.3-13.6 15.4-5.6 37.5-15.5 38.7-34.5 1-15.8 0-32.1 0-47.9 0 26.5-57.3 48-128 48z" fill="#a38b21"/><g id="XMLID_1426_"><g id="XMLID_25_"><path id="XMLID_26_" d="m442 293h-10v-130.4l-176.9-32.7 1.8-9.8 181 33.5c2.4.4 4.1 2.5 4.1 4.9z" fill="#2d1123"/></g></g><circle id="XMLID_1425_" cx="437" cy="263" fill="#f8d700" r="18.3"/><path id="XMLID_718_" d="m445.3 254.4v.2c-.7 8.8-7.9 15.9-16.7 16.7-.1 0-.1 0-.2 0-3.4.3-4.8 4.6-2 6.6 3.4 2.4 7.7 3.7 12.3 3.3 8.7-.8 15.8-7.9 16.6-16.6.4-4.6-.9-8.9-3.3-12.3-2.1-2.7-6.5-1.4-6.7 2.1z" fill="#f8b700"/><path id="XMLID_1424_" d="m437 281.3c15.3 0 27.7 12.4 27.7 27.7v32h-55.3v-32c-.1-15.3 12.3-27.7 27.6-27.7z" fill="#f8b700"/><path id="XMLID_656_" d="m438 281.3c9.6 0 17.3 7.8 17.3 17.3v2.2c0 14.7-11.9 26.7-26.7 26.7h-19.3v-17.5c0-15.8 12.9-28.7 28.7-28.7z" fill="#f8d700"/></g></g></svg>