<svg id="Layer_1" enable-background="new 0 0 512 512" height="512" viewBox="0 0 512 512" width="512" xmlns="http://www.w3.org/2000/svg"><g><path d="m105.66 470.694c-5.605-2.322-9.26-7.792-9.26-13.858v-99.76l-83.866-13.978c-7.233-1.206-12.534-7.463-12.534-14.796v-273.133c0-8.284 6.716-15 15-15h482c8.284 0 15 6.716 15 15v353.467c0 4.409-1.94 8.595-5.305 11.445-3.363 2.851-7.81 4.075-12.161 3.351l-281.586-46.932-90.942 90.942c-4.607 4.608-11.161 5.399-16.346 3.252z" fill="#00a8ed"/><path d="m497 40.169h-226v346.007l223.534 37.256c4.352.725 8.798-.5 12.161-3.351 3.364-2.85 5.305-7.036 5.305-11.445v-353.467c0-8.284-6.716-15-15-15z" fill="#008eed"/><path d="m207.8 166.569c8.284 0 15-6.716 15-15s-6.716-15-15-15h-32.133c-8.284 0-15 6.716-15 15v96.4c0 8.284 6.716 15 15 15h32.133c8.284 0 15-6.716 15-15s-6.716-15-15-15h-17.133v-18.2h6.45c8.284 0 15-6.716 15-15s-6.716-15-15-15h-6.45v-18.2z" fill="#f0f5ff"/><path d="m408.634 136.569c-25.989 0-47.134 21.136-47.134 47.117v32.166c0 25.98 21.145 47.117 47.134 47.117s47.133-21.137 47.133-47.117v-32.166c0-25.981-21.144-47.117-47.133-47.117zm17.133 79.283c0 9.438-7.686 17.117-17.133 17.117s-17.134-7.679-17.134-17.117v-32.166c0-9.438 7.687-17.117 17.134-17.117s17.133 7.679 17.133 17.117z" fill="#d8f1fb"/><path d="m272.066 232.969h-1.066v-81.4c0-8.284-6.716-15-15-15s-15 6.716-15 15v96.4c0 8.284 6.716 15 15 15h16.066c8.284 0 15-6.716 15-15s-6.715-15-15-15z" fill="#f0f5ff"/><path d="m336.333 232.969h-1.066v-81.4c0-8.284-6.716-15-15-15s-15 6.716-15 15v96.4c0 8.284 6.716 15 15 15h16.066c8.284 0 15-6.716 15-15s-6.716-15-15-15z" fill="#d8f1fb"/><path d="m127.467 136.569c-8.284 0-15 6.716-15 15v33.2h-18.2v-33.2c0-8.284-6.716-15-15-15s-15 6.716-15 15v96.4c0 8.284 6.716 15 15 15s15-6.716 15-15v-33.2h18.2v33.2c0 8.284 6.716 15 15 15s15-6.716 15-15v-96.4c0-8.284-6.716-15-15-15z" fill="#f0f5ff"/><path d="m272.066 232.969h-1.066v30h1.066c8.284 0 15-6.716 15-15s-6.715-15-15-15z" fill="#d8f1fb"/></g></svg>