<svg id="Layer_1" enable-background="new 0 0 512 512" height="512" viewBox="0 0 512 512" width="512" xmlns="http://www.w3.org/2000/svg"><g><path d="m245.002 0c-56.435 0-108.404 19.093-149.827 51.156l-27.928 362.444h-.002c44.645 47.055 107.772 76.403 177.757 76.403 135.311 0 245.002-109.691 245.002-245.002 0-135.31-109.691-245.001-245.002-245.001z" fill="#ffdd40"/><path d="m91.789 165.438c14.989 16.633 35.546 25.672 61.105 26.868l40.5 17.307c.027 2.265.559 7.455 4.587 10.821 3.903 3.262 9.875 3.827 17.748 1.68 1.928-.526 3.322-.436 4.264.276 2.619 1.977 2.698 8.924 2.79 16.969.208 18.249.522 45.684 31.371 53.532-2.046 9.405-11.634 61.43 16.294 101.159 18.654 26.538 49.892 42.234 92.853 46.693.755-.469 1.552-.896 2.402-1.261 86.937-37.378 146.297-112.358 146.297-198.776 0-123.748-121.704-224.066-271.833-224.066-53.31 0-103.026 12.66-144.991 34.515-11.061 8.562-21.363 18.055-30.803 28.352-.202 9.587.319 55.863 27.416 85.931z" fill="#49b1f7"/><path d="m240.335 464.771c10.122-.004 19.982 3.459 27.728 9.976 31.487 26.49 72.729 40.205 114.851 36.718 10.857-.899 14.384-15.008 5.189-20.851-10.163-6.458-19.614-14.087-28.129-22.772-8.635-8.809-5.604-23.488 5.729-28.36-144.299-13.519-109.755-147.702-109.755-147.702-51.552-11.72-18.614-77.113-40.614-71.113s-20.414-12.033-20.414-12.033l-41.685-17.813c-93.466-4.167-87.347-112.29-87.307-112.985-40.887 43.775-65.928 102.539-65.928 167.166 0 65.326 25.573 124.676 67.247 168.598 46.99 31.968 107.234 51.172 172.92 51.172z" fill="#1e9ef4"/><path d="m380.784 291.846c-27.853 0-50.513-22.66-50.513-50.513s22.66-50.513 50.513-50.513 50.513 22.66 50.513 50.513-22.66 50.513-50.513 50.513zm0-79.177c-15.805 0-28.664 12.859-28.664 28.664s12.859 28.664 28.664 28.664 28.664-12.859 28.664-28.664-12.859-28.664-28.664-28.664z" fill="#deeeff"/><g><path d="m64.532 291.846c-6.034 0-10.925-4.891-10.925-10.925v-79.177c0-6.034 4.891-10.925 10.925-10.925s10.925 4.891 10.925 10.925v79.177c0 6.035-4.891 10.925-10.925 10.925z" fill="#deeeff"/></g><g><path d="m119.324 291.846c-6.034 0-10.925-4.891-10.925-10.925v-79.177c0-6.034 4.891-10.925 10.925-10.925s10.925 4.891 10.925 10.925v79.177c0 6.035-4.891 10.925-10.925 10.925z" fill="#deeeff"/></g><g><path d="m119.324 250.9h-54.792c-6.034 0-10.925-4.891-10.925-10.925s4.891-10.925 10.925-10.925h54.792c6.034 0 10.925 4.891 10.925 10.925s-4.891 10.925-10.925 10.925z" fill="#deeeff"/></g><g><path d="m186.443 291.484h-33.209c-6.034 0-10.925-4.891-10.925-10.925v-78.814c0-6.034 4.891-10.925 10.925-10.925h33.209c6.034 0 10.925 4.891 10.925 10.925s-4.891 10.925-10.925 10.925h-22.284v56.965h22.284c6.034 0 10.925 4.891 10.925 10.925s-4.892 10.924-10.925 10.924z" fill="#deeeff"/></g><g><path d="m183.994 252.077h-30.76c-6.034 0-10.925-4.891-10.925-10.925s4.891-10.925 10.925-10.925h30.76c6.034 0 10.925 4.891 10.925 10.925s-4.891 10.925-10.925 10.925z" fill="#deeeff"/></g><g><path d="m232.453 291.85c-10.597 0-11.213-.087-11.854-.178-5.39-.761-9.398-5.374-9.398-10.817v-79.111c0-6.034 4.891-10.925 10.925-10.925s10.925 4.891 10.925 10.925v68.253c6.411-.004 14.887-.03 22.796-.067h.051c6.011 0 10.896 4.858 10.923 10.874.028 6.033-4.841 10.947-10.874 10.975-10.916.051-18.371.071-23.494.071z" fill="#deeeff"/></g><g><path d="m298.015 291.85c-10.597 0-11.213-.087-11.854-.178-5.39-.761-9.398-5.374-9.398-10.817v-79.111c0-6.034 4.892-10.925 10.925-10.925s10.925 4.891 10.925 10.925v68.253c6.412-.004 14.887-.03 22.796-.067h.051c6.011 0 10.896 4.858 10.923 10.874.028 6.033-4.841 10.947-10.874 10.975-10.915.051-18.372.071-23.494.071z" fill="#deeeff"/></g><ellipse cx="336.843" cy="102.934" fill="#73c3f9" rx="36.049" ry="58.403" transform="matrix(.311 -.95 .95 .311 134.174 391.003)"/></g></svg>