<svg id="Capa_1" enable-background="new 0 0 130 130" height="130" viewBox="0 0 512 512" width="512" xmlns="http://www.w3.org/2000/svg"><g><g><path clip-rule="evenodd" d="m160.588 77.373c-10.716 0-19.506 8.789-19.506 19.535v17.579c0 10.746 8.789 19.506 19.506 19.506h19.535c24.061-27.303 12.614-48.912-1.372-56.621h-18.163z" fill="#9fd4fe" fill-rule="evenodd"/></g><g><path clip-rule="evenodd" d="m345.542 133.993h12.013l7.515 2.677s5.065-1.975 7.935-3.827c7.521-2.717 12.921-9.943 12.921-18.357v-17.578c0-10.746-8.76-19.535-19.506-19.535h-19.535c-15.096 6.891-17.52 44.765-1.343 56.62z" fill="#9fd4fe" fill-rule="evenodd"/></g><g><path clip-rule="evenodd" d="m141.083 114.487c0 10.746 8.789 19.506 19.506 19.506h19.535c4.234-4.789 7.358-9.432 9.578-13.841h-10.922-18.192c-10.716 0-19.506-8.789-19.506-19.506v13.841z" fill="#85beef" fill-rule="evenodd"/></g><g><path clip-rule="evenodd" d="m346.886 120.152h-10.396c1.781 5.753 4.789 10.717 9.052 13.841h19.739 1.139c10.746 0 19.506-8.789 19.506-19.506v-13.841c0 10.717-8.76 19.506-19.506 19.506h-1.139z" fill="#85beef" fill-rule="evenodd"/></g><g><path clip-rule="evenodd" d="m284.222 194.615c-7.738 2.891-14.571 4.322-21.375 4.322-6.833 0-13.666-1.431-21.404-4.322-7.066-2.628-13.899-6.278-20.294-10.688v49.496l36.15 29.814h11.067l16.41-13.52 8.76-7.213 10.979-9.081v-49.496c-6.365 4.409-13.197 8.06-20.293 10.688z" fill="#f5a96c" fill-rule="evenodd"/></g><g><path clip-rule="evenodd" d="m262.847 198.936c-6.833 0-13.666-1.431-21.404-4.322-7.066-2.628-13.899-6.278-20.294-10.688v24.762c8.585 9.607 41.99 22.339 63.54 11.242v29.23l19.827-26.661v-27.653-10.921c-6.366 4.409-13.198 8.059-20.294 10.688-7.738 2.893-14.571 4.323-21.375 4.323z" fill="#ea9a58" fill-rule="evenodd"/></g><g><path clip-rule="evenodd" d="m244.539 380.8 18.309-76.039-68.153-73.732c-12.352 4.643-25.492 10.571-37.697 17.9-20.469 12.323-38.311 28.675-45.289 49.7-2.044 6.103-3.154 12.615-3.154 19.535v53.146c-.438 7.563 1.372 9.49 8.789 9.49h93.411z" fill="#375e7d" fill-rule="evenodd"/></g><g><path clip-rule="evenodd" d="m417.112 318.164c0-44.94-47.042-72.448-86.141-87.136l-68.124 73.732 20.207 76.039h125.269c7.446 0 9.227-1.927 8.789-9.49z" fill="#375e7d" fill-rule="evenodd"/></g><g><path clip-rule="evenodd" d="m293.712 380.8-13.753-76.039-17.112-9.257-17.14 9.257-13.753 76.039h30.893z" fill="#eb5468" fill-rule="evenodd"/></g><g><path clip-rule="evenodd" d="m262.847 295.504-17.141 9.257-2.248 12.527h20.75c1.494 0 2.775 1.069 3.041 2.54l11.045 60.972h15.418l-13.753-76.039z" fill="#e5384f" fill-rule="evenodd"/></g><g><path clip-rule="evenodd" d="m294.238 274.392-9.461-12.726-21.93-4.795-21.27 3.507-10.12 14.014 14.25 30.369h17.14 17.112z" fill="#eb5468" fill-rule="evenodd"/></g><g><path clip-rule="evenodd" d="m262.847 256.871h-21.27l-10.12 17.521 6.891 14.688 11.446-6.395 11.545-6.431c.937-.522 2.078-.521 3.014.003l13.153 7.362 9.811 5.461 6.92-14.688-7.59-13.498z" fill="#e5384f" fill-rule="evenodd"/></g><g><path clip-rule="evenodd" d="m262.847 256.871-41.698-34.37c-7.796 2.102-16.907 4.935-26.455 8.527l24.147 46.726c.8 1.548 2.721 2.129 4.245 1.283l8.371-4.646z" fill="#eff6ff" fill-rule="evenodd"/></g><g><path clip-rule="evenodd" d="m330.971 231.028c-9.548-3.592-18.63-6.424-26.455-8.527l-41.669 34.37 31.39 17.521 8.369 4.645c1.524.846 3.446.264 4.246-1.285z" fill="#eff6ff" fill-rule="evenodd"/></g><g><path clip-rule="evenodd" d="m330.971 231.028c-9.548-3.592-18.63-6.424-26.455-8.527l-10.979 9.052-8.76 7.213c8.264 2.628 17.257 5.899 26.368 9.841 2.92 1.256 5.811 2.599 8.702 3.971z" fill="#d9eeff" fill-rule="evenodd"/></g><g><path clip-rule="evenodd" d="m417.112 318.164c0-44.94-47.042-72.448-86.141-87.136l-11.125 21.55c39.099 14.688 65.146 42.195 65.146 87.136v41.086h23.331c7.446 0 9.227-1.927 8.789-9.49z" fill="#2b4d66" fill-rule="evenodd"/></g><g><path clip-rule="evenodd" d="m346.886 122.138v-21.638c-11.651-26.573-134.146-90.465-168.105 6.161v15.477c0 30.165 28.353 68.009 63.014 80.857 7.592 2.832 14.308 4.234 21.053 4.234 6.716 0 13.432-1.402 21.053-4.234 34.631-12.848 62.985-50.693 62.985-80.857z" fill="#ffbc85" fill-rule="evenodd"/></g><g><path clip-rule="evenodd" d="m346.886 70.335c0-61.702-99.339-92.479-130.437-52.095-40.617 3.592-37.639 57.643-37.639 64.768l-.03 17.492v6.161c28.704-21.317 19.185-15.973 39.683-28.646 31.303-19.331 57.904 22.485 107.544 22.485h20.878v-30.165z" fill="#375e7d" fill-rule="evenodd"/></g><g><path clip-rule="evenodd" d="m303.874 192.483c16.118-11.155 29.375-27.215 36.734-43.685 4.03-8.994 6.278-18.134 6.278-26.66v-21.638c-8.468-7.242-17.695-10.512-26.835-.204v21.842c0 24.12-18.104 53.146-43.099 70.404-6.249 4.322-12.936 7.884-19.885 10.454-2.657.993-5.168 1.781-7.65 2.424 4.643 1.226 9.023 1.81 13.432 1.81 6.716 0 13.432-1.402 21.053-4.234 6.948-2.57 13.694-6.191 19.972-10.513z" fill="#f5a96c" fill-rule="evenodd"/></g><g><path clip-rule="evenodd" d="m320.051 100.296c1.956.146 3.942.204 5.957.204h20.878v-30.165c0-47.306-58.371-76.419-99.631-69.235 35.858 5.49 72.796 31.625 72.796 69.235z" fill="#2b4d66" fill-rule="evenodd"/></g><g><path clip-rule="evenodd" d="m25.771 359.571h460.458c14.162 0 25.755 11.593 25.755 25.755v100.919c0 14.162-11.592 25.755-25.755 25.755h-460.458c-14.162 0-25.755-11.593-25.755-25.755v-100.919c.001-14.162 11.593-25.755 25.755-25.755z" fill="#9fd4fe" fill-rule="evenodd"/></g><g><path clip-rule="evenodd" d="m511.983 486.245v-100.919c0-14.162-11.592-25.755-25.755-25.755h-38.515c14.162 0 25.755 11.593 25.755 25.755v19.127 81.792c0 14.162-11.592 25.755-25.755 25.755h38.515c14.163 0 25.755-11.593 25.755-25.755z" fill="#85beef" fill-rule="evenodd"/></g><g><path d="m53.715 470.815c-9.511 0-18.793-3.986-24.828-10.663-2.862-3.166-2.616-8.051.55-10.912 3.165-2.861 8.051-2.615 10.912.55 3.155 3.489 8.151 5.572 13.365 5.572 4.783 0 8.255-2.863 8.727-5.516.629-3.52-4.923-5.857-6.639-6.49-8.532-3.151-16.112-6.538-16.43-6.681-.368-.165-.722-.358-1.059-.577-6.078-3.96-9.206-10.904-8.162-18.125 1.108-7.664 6.705-13.891 14.607-16.252 15.393-4.649 28.08 5.8 28.613 6.246 3.268 2.744 3.692 7.618.948 10.885-2.731 3.253-7.571 3.689-10.839.987-.204-.162-7.022-5.517-14.275-3.319-3.049.91-3.644 2.864-3.76 3.662-.095.654-.078 1.819.945 2.699 2.028.889 8.175 3.543 14.762 5.977 14.341 5.285 17.929 15.709 16.503 23.701-1.886 10.579-11.955 18.256-23.94 18.256z" fill="#2b4d66"/></g><g><path d="m119.182 470.815c-5.237 0-10.045-1.387-14.289-4.124-8.049-5.106-12.155-12.086-12.155-20.714v-37.728c0-4.268 3.459-7.726 7.726-7.726 4.268 0 7.726 3.459 7.726 7.726v37.728c0 2.783.841 5.04 5.027 7.696 1.779 1.147 3.714 1.689 5.964 1.689 2.094 0 3.913-.406 5.564-1.241 5.375-2.712 6.099-5.653 6.099-8.173v-37.699c0-4.268 3.459-7.726 7.726-7.726s7.726 3.459 7.726 7.726v37.699c0 6.663-2.53 15.883-14.583 21.965-3.802 1.924-8.021 2.902-12.531 2.902z" fill="#2b4d66"/></g><g fill="#2b4d66"><path d="m477.381 400.727h-30.281c-4.268 0-7.726 3.459-7.726 7.726 0 4.268 3.459 7.726 7.726 7.726h7.341v47.113c0 4.268 3.459 7.726 7.726 7.726s7.726-3.459 7.726-7.726v-47.112h7.487c4.268 0 7.726-3.459 7.726-7.726.002-4.268-3.457-7.727-7.725-7.727z"/><path d="m423.553 422.499c0-12.118-10.225-21.977-22.794-21.977h-14.57c-4.209 0-7.726 3.52-7.726 7.726v54.84c0 4.268 3.459 7.726 7.726 7.726 4.268 0 7.726-3.459 7.726-7.726v-13.193l16.113 18.299c1.527 1.735 3.659 2.621 5.802 2.621 1.814 0 3.635-.635 5.103-1.928 3.203-2.82 3.513-7.702.693-10.904l-13.062-14.835c8.736-3.079 14.989-11.173 14.989-20.649zm-22.793-6.524c3.979 0 7.341 2.988 7.341 6.524s-3.362 6.524-7.341 6.524c-1.6 0-4.203.009-6.766.02-.011-2.488-.03-10.45-.041-13.068z"/><path d="m251.868 400.522h-15.272c-4.21 0-7.726 3.52-7.726 7.726v54.84c0 4.268 3.459 7.726 7.726 7.726 4.268 0 7.726-3.459 7.726-7.726v-16.138c2.824-.012 5.772-.022 7.545-.022 12.955 0 23.494-10.408 23.494-23.203s-10.538-23.203-23.493-23.203zm0 30.954c-1.761 0-4.675.01-7.483.022-.018-2.909-.033-5.954-.033-7.773 0-1.544-.006-4.693-.012-7.75h7.528c4.359 0 8.041 3.549 8.041 7.75s-3.682 7.751-8.041 7.751z"/><path d="m189.468 400.522h-15.272c-4.21 0-7.726 3.52-7.726 7.726v54.84c0 4.268 3.459 7.726 7.726 7.726 4.268 0 7.726-3.459 7.726-7.726v-16.138c2.827-.012 5.775-.022 7.545-.022 12.955 0 23.494-10.408 23.494-23.203s-10.538-23.203-23.493-23.203zm0 30.954c-1.761 0-4.68.01-7.494.022-.012-2.91-.022-5.954-.022-7.773 0-1.544-.006-4.693-.012-7.75h7.528c4.359 0 8.041 3.549 8.041 7.75s-3.682 7.751-8.041 7.751z"/></g><g><path d="m324.256 470.815c-19.379 0-35.146-15.767-35.146-35.146 0-19.38 15.767-35.147 35.146-35.147s35.145 15.767 35.145 35.147c-.001 19.379-15.766 35.146-35.145 35.146zm0-54.84c-10.859 0-19.693 8.835-19.693 19.694s8.834 19.693 19.693 19.693c10.858 0 19.692-8.834 19.692-19.693s-8.834-19.694-19.692-19.694z" fill="#2b4d66"/></g><g><path d="m373.008 132.852v25.003c0 18.275-14.866 33.161-33.131 33.161h-71.484c-4.265 0-7.726-3.461-7.726-7.726 0-4.275 3.461-7.726 7.726-7.726h71.484c9.745 0 17.678-7.953 17.678-17.709v-23.859h8.87c2.308 0 4.523-.402 6.583-1.144z" fill="#375e7d"/></g></g></svg>