<svg height="512" viewBox="0 0 64 64" width="512" xmlns="http://www.w3.org/2000/svg"><g id="Layer_13" data-name="Layer 13"><rect fill="#0fbcf9" height="57.5" rx="28.75" width="57.5" x="3.25" y="3.25"/><g fill="#fff"><path d="m15.9 18.75h32.2a.75.75 0 0 0 0-1.5h-32.2a.75.75 0 1 0 0 1.5z"/><path d="m48.1 24.25h-32.2a.75.75 0 1 0 0 1.5h32.2a.75.75 0 0 0 0-1.5z"/><path d="m48.1 31.25h-32.2a.75.75 0 1 0 0 1.5h32.2a.75.75 0 0 0 0-1.5z"/><path d="m48.1 38.25h-32.2a.75.75 0 1 0 0 1.5h32.2a.75.75 0 0 0 0-1.5z"/><path d="m48.1 45.25h-32.2a.75.75 0 1 0 0 1.5h32.2a.75.75 0 0 0 0-1.5z"/></g></g></svg>