<svg xmlns="http://www.w3.org/2000/svg" xmlns:xlink="http://www.w3.org/1999/xlink" viewBox="0 0 681.64 239.36"><defs><style>.cls-1{fill:#f9c33e;}.cls-2{fill:none;}.cls-3{isolation:isolate;}.cls-4{font-size:80.88px;fill:#282828;font-family:Nunito-ExtraBold, Nunito;font-weight:800;}.cls-5{letter-spacing:-0.01em;}.cls-6{letter-spacing:-0.01em;}.cls-7{letter-spacing:-0.01em;}.cls-8{fill:#1a1a1a;}.cls-9{fill:url(#linear-gradient);}.cls-10{fill:url(#radial-gradient);}.cls-11{fill:url(#radial-gradient-2);}.cls-12{clip-path:url(#clip-path);}.cls-13{fill:#7e5923;opacity:0.41;}.cls-13,.cls-20{mix-blend-mode:overlay;}.cls-14{fill:#fedfb1;}.cls-14,.cls-20{opacity:0.29;}.cls-14,.cls-23{mix-blend-mode:soft-light;}.cls-15{fill:#272626;}.cls-16{fill:#636363;}.cls-17{clip-path:url(#clip-path-2);}.cls-18{fill:#f9af3d;}.cls-19{clip-path:url(#clip-path-3);}.cls-20{fill:#181818;}.cls-21{fill:#474747;}.cls-22{clip-path:url(#clip-path-4);}.cls-23{fill:#c1c0c0;opacity:0.59;}.cls-24{clip-path:url(#clip-path-6);}.cls-25{fill:url(#linear-gradient-2);}.cls-26{fill:url(#linear-gradient-3);}.cls-27{fill:url(#linear-gradient-4);}.cls-28{fill:url(#linear-gradient-5);}.cls-29{fill:url(#linear-gradient-6);}.cls-30{fill:url(#linear-gradient-7);}</style><linearGradient id="linear-gradient" x1="97.8" y1="41.1" x2="137.16" y2="41.1" gradientUnits="userSpaceOnUse"><stop offset="0" stop-color="#f05024"/><stop offset="1" stop-color="#f99f1c"/></linearGradient><radialGradient id="radial-gradient" cx="185.44" cy="168.4" r="24.99" gradientUnits="userSpaceOnUse"><stop offset="0" stop-color="#29a64a"/><stop offset="0.25" stop-color="#25a14d"/><stop offset="0.55" stop-color="#1b9358"/><stop offset="0.85" stop-color="#0a7d68"/><stop offset="1" stop-color="#006f72"/></radialGradient><radialGradient id="radial-gradient-2" cx="49.89" cy="168.4" r="30.18" gradientUnits="userSpaceOnUse"><stop offset="0" stop-color="#0099d9"/><stop offset="0.06" stop-color="#0395d3"/><stop offset="0.7" stop-color="#256497"/><stop offset="1" stop-color="#32517f"/></radialGradient><clipPath id="clip-path" transform="translate(0 6.64)"><path class="cls-1" d="M96.17,19.24s-1.89,2.18-3.74,1.82c0-.14.22-.28.19-.42a.21.21,0,0,0-.06-.1l-.22-.26a.41.41,0,0,1,0-.09.14.14,0,0,1,0-.09,1,1,0,0,1,.13-.27.21.21,0,0,0,0-.1.13.13,0,0,0-.09-.12.42.42,0,0,0-.15,0,.71.71,0,0,1-.18-.08A.18.18,0,0,1,92,19.4v-.06c0-.09-.13-.16-.11-.25a.6.6,0,0,1,.13-.25l.13-.07a7.65,7.65,0,0,1,2.27-.47,3.57,3.57,0,0,1,1.59.17c0,.12.13.23.18.35a.32.32,0,0,1,0,.19.11.11,0,0,0,0,.08s0,0,0,0A.43.43,0,0,1,96.17,19.24Z"/></clipPath><clipPath id="clip-path-2" transform="translate(0 6.64)"><path class="cls-2" d="M104.31,3.55a7.37,7.37,0,0,0-2.64,3.22c-1.22,2.43-1.94,6.5-3,9a8.1,8.1,0,0,1-2.2,3.16s-1-.17-.44-.76a13.45,13.45,0,0,0,3-6.5c.63-3.66,3-8.74,4.63-9.28a2.28,2.28,0,0,1,2.67.57Z"/></clipPath><clipPath id="clip-path-3" transform="translate(0 6.64)"><path class="cls-2" d="M88.56,8.67l15.71-5.09,2-.64,9-2.92a.32.32,0,0,1,.17,0l26.37,6.21a.33.33,0,0,1,.25.29.32.32,0,0,1-.22.31l-22.55,7.33a.25.25,0,0,1-.12,0h0L88.6,9.28A.31.31,0,0,1,88.34,9,.32.32,0,0,1,88.56,8.67Z"/></clipPath><clipPath id="clip-path-4" transform="translate(0 6.64)"><path class="cls-2" d="M116.24,6.25c5.7-.06,10.63.62,12.93,1.64l.11,2.62.27,6.7c0-1-6-1.68-13.29-1.61-7,.07-12.77.84-13.23,1.75h0l-.18-6.83,0-2.07C104.71,7.22,110,6.31,116.24,6.25Z"/></clipPath><clipPath id="clip-path-6" transform="translate(0 6.64)"><ellipse class="cls-2" cx="96.02" cy="18.64" rx="0.72" ry="0.76" transform="translate(71.27 113.27) rotate(-86.33)"/></clipPath><linearGradient id="linear-gradient-2" x1="34.84" y1="51.23" x2="93.36" y2="51.23" gradientUnits="userSpaceOnUse"><stop offset="0" stop-color="#f05024"/><stop offset="0.28" stop-color="#f26222"/><stop offset="0.85" stop-color="#f7921d"/><stop offset="1" stop-color="#f99f1c"/></linearGradient><linearGradient id="linear-gradient-3" x1="122.91" y1="80.6" x2="200.12" y2="80.6" xlink:href="#linear-gradient-2"/><linearGradient id="linear-gradient-4" x1="172.75" y1="116.74" x2="235" y2="116.74" xlink:href="#radial-gradient"/><linearGradient id="linear-gradient-5" x1="91.49" y1="172.98" x2="179.53" y2="172.98" xlink:href="#radial-gradient"/><linearGradient id="linear-gradient-6" y1="116.47" x2="130.16" y2="116.47" gradientUnits="userSpaceOnUse"><stop offset="0" stop-color="#0099d9"/><stop offset="0.19" stop-color="#0494d2"/><stop offset="0.45" stop-color="#1085c0"/><stop offset="0.75" stop-color="#236da2"/><stop offset="1" stop-color="#355685"/></linearGradient><linearGradient id="linear-gradient-7" x1="56.22" y1="201.5" x2="109.81" y2="201.5" xlink:href="#linear-gradient-6"/></defs><g class="cls-3"><g id="Layer_2" data-name="Layer 2"><g id="Layer_1-2" data-name="Layer 1"><text class="cls-4" transform="translate(267.56 146.03)"><tspan class="cls-5">R</tspan><tspan class="cls-6" x="55.16" y="0">e</tspan><tspan x="98.83" y="0">vis</tspan><tspan class="cls-6" x="203.48" y="0">e</tspan><tspan class="cls-7" x="247.16" y="0">w</tspan><tspan x="315.82" y="0">ell</tspan></text><path class="cls-8" d="M116.26,15.6c7.33-.07,13.28.65,13.29,1.61s-5.93,1.8-13.26,1.87S103,18.43,103,17.47a.27.27,0,0,1,0-.12C103.49,16.44,109.23,15.67,116.26,15.6Z" transform="translate(0 6.64)"/><path class="cls-8" d="M116.26,15.6c7.33-.07,13.28.65,13.29,1.61s-5.93,1.8-13.26,1.87S103,18.43,103,17.47a.27.27,0,0,1,0-.12C103.49,16.44,109.23,15.67,116.26,15.6Z" transform="translate(0 6.64)"/><circle class="cls-9" cx="117.48" cy="41.1" r="19.68"/><circle class="cls-10" cx="185.44" cy="168.4" r="19.68"/><circle class="cls-11" cx="49.89" cy="168.4" r="19.68"/><path class="cls-1" d="M96.17,19.24s-1.89,2.18-3.74,1.82c0-.14.22-.28.19-.42a.21.21,0,0,0-.06-.1l-.22-.26a.41.41,0,0,1,0-.09.14.14,0,0,1,0-.09,1,1,0,0,1,.13-.27.21.21,0,0,0,0-.1.13.13,0,0,0-.09-.12.42.42,0,0,0-.15,0,.71.71,0,0,1-.18-.08A.18.18,0,0,1,92,19.4v-.06c0-.09-.13-.16-.11-.25a.6.6,0,0,1,.13-.25l.13-.07a7.65,7.65,0,0,1,2.27-.47,3.57,3.57,0,0,1,1.59.17c0,.12.13.23.18.35a.32.32,0,0,1,0,.19.11.11,0,0,0,0,.08s0,0,0,0A.43.43,0,0,1,96.17,19.24Z" transform="translate(0 6.64)"/><g class="cls-12"><path class="cls-13" d="M92.17,19.89a37.09,37.09,0,0,0,3.63-1.23c.72-.37-4.46,1.05-4.46,1.05Z" transform="translate(0 6.64)"/><path class="cls-13" d="M95.91,19.05s-2.65,2.11-3.68,1.66l-.14-.21s3.15-.89,3.79-1.64S95.91,19.05,95.91,19.05Z" transform="translate(0 6.64)"/><path class="cls-14" d="M92.07,20.23A16.81,16.81,0,0,0,96,18.81S92,20.18,91.81,20.24,92.07,20.23,92.07,20.23Z" transform="translate(0 6.64)"/><path class="cls-14" d="M95.56,18.48s-3.58.22-4,.61,4-.55,4-.55Z" transform="translate(0 6.64)"/><path class="cls-14" d="M95.45,18.41a29.24,29.24,0,0,0-4.2.39s3.33-.9,4.32-.56S95.45,18.41,95.45,18.41Z" transform="translate(0 6.64)"/><path class="cls-14" d="M95.88,19.24s-1.88,2.23-3.57,1.7,1.17,1.34,1.17,1.34S97.27,19.44,95.88,19.24Z" transform="translate(0 6.64)"/></g><path class="cls-15" d="M88.56,8.67l15.71-5.09,2-.64,9-2.92a.32.32,0,0,1,.17,0l26.37,6.21a.33.33,0,0,1,.25.29.32.32,0,0,1-.22.31l-22.55,7.33a.25.25,0,0,1-.12,0h0L88.6,9.28A.31.31,0,0,1,88.34,9,.32.32,0,0,1,88.56,8.67Z" transform="translate(0 6.64)"/><path class="cls-16" d="M88.56,8.67l15.71-5.09,2-.64,9-2.92a.32.32,0,0,1,.17,0l26.37,6.21a.31.31,0,0,1,.05.6L115.66.64a.33.33,0,0,0-.17,0l-9,2.92-2,.64L88.78,9.31l-.18,0A.31.31,0,0,1,88.34,9,.32.32,0,0,1,88.56,8.67Z" transform="translate(0 6.64)"/><path class="cls-1" d="M104.27,3.58a7.23,7.23,0,0,0-2.6,3.19c-1.22,2.43-1.94,6.5-3,9a8.1,8.1,0,0,1-2.2,3.16s-1-.17-.44-.76a13.45,13.45,0,0,0,3-6.5c.63-3.66,3-8.74,4.63-9.28a2.25,2.25,0,0,1,2.66.59Z" transform="translate(0 6.64)"/><g class="cls-17"><path class="cls-18" d="M97.22,18.77s-.06-2.54-.17-2.85.76-1.17.76-1.17a17.79,17.79,0,0,1,.09,3.48A.72.72,0,0,1,97.22,18.77Z" transform="translate(0 6.64)"/><path class="cls-18" d="M98.92,15.73s-.3-1.88-.81-2.14.53-2.11.53-2.11,1.23,1.67,1.06,2.88S98.92,15.73,98.92,15.73Z" transform="translate(0 6.64)"/><path class="cls-18" d="M100.45,12.3S99.11,10,99.2,9.4a9.29,9.29,0,0,1,.72-1.9,16.88,16.88,0,0,0,.83,3.27C101,10.87,100.45,12.3,100.45,12.3Z" transform="translate(0 6.64)"/><path class="cls-18" d="M101.39,8.35a25,25,0,0,1-.4-3.8,1.94,1.94,0,0,1,.93-1.31s.26,3.27.81,3.35S101.39,8.35,101.39,8.35Z" transform="translate(0 6.64)"/><path class="cls-18" d="M103.55,4.85s-.72-2.28-.37-3.21,2,.21,2,.21a1.81,1.81,0,0,0-1.08,2C104.45,5.29,103.55,4.85,103.55,4.85Z" transform="translate(0 6.64)"/></g><ellipse class="cls-18" cx="96.02" cy="18.64" rx="0.72" ry="0.76" transform="translate(71.27 119.91) rotate(-86.33)"/><g class="cls-19"><path class="cls-20" d="M115.69-3.39l-.85,13.24-1.5,15.07L80,8.15S103.84-15,115.69-3.39Z" transform="translate(0 6.64)"/></g><path class="cls-21" d="M116.24,6.25c5.7-.06,10.63.62,12.93,1.64l.11,2.62.27,6.7c0-1-6-1.68-13.29-1.61-7,.07-12.77.84-13.23,1.75h0l-.18-6.83,0-2.07C104.71,7.22,110,6.31,116.24,6.25Z" transform="translate(0 6.64)"/><path class="cls-16" d="M116.2,15.16c6.59-.07,12.24.57,13.32,1.39l0,.66c0-1-6-1.68-13.29-1.61-7,.07-12.77.84-13.23,1.75h0l0-.52C104.09,16,109.66,15.22,116.2,15.16Z" transform="translate(0 6.64)"/><path class="cls-21" d="M116.24,6.25c5.7-.06,10.63.62,12.93,1.64l.11,2.62.27,6.7c0-1-6-1.68-13.29-1.61-7,.07-12.77.84-13.23,1.75h0l-.18-6.83,0-2.07C104.71,7.22,110,6.31,116.24,6.25Z" transform="translate(0 6.64)"/><g class="cls-22"><path class="cls-20" d="M116.49,5.57s-3.58,8.15-2.06,11.44S101,18.59,101,18.59l-.43-10.5S112.47,3.23,116.49,5.57Z" transform="translate(0 6.64)"/></g><g class="cls-22"><path class="cls-23" d="M124.65,5.25c2.21,2.39,2.49,11.2,1.74,12.48s-3.94-.07-3.94-.07,1-10.91-1-13c-1-1,2.11-.59,2.11-.59S124.33,4.91,124.65,5.25Z" transform="translate(0 6.64)"/></g><g class="cls-24"><path class="cls-13" d="M96.79,18s-.36,1.56-1.22,1.27.8-1.45.92-1.45a9.11,9.11,0,0,0-1-.52L94.12,18.6l1.11,2.09,2.5-.37S97.24,17.77,96.79,18Z" transform="translate(0 6.64)"/></g><ellipse class="cls-14" cx="96.11" cy="18.38" rx="0.4" ry="0.47" transform="translate(71.61 119.75) rotate(-86.33)"/><path class="cls-25" d="M92.28,34.47a25.27,25.27,0,0,1,.91-6.72H34.84L62,74.71H78.13l-19-32.95H93.36A24.89,24.89,0,0,1,92.28,34.47Z" transform="translate(0 6.64)"/><path class="cls-26" d="M141.77,27.75a25.2,25.2,0,0,1-.17,14h34.25l-52.94,91.7h16.18l61-105.71Z" transform="translate(0 6.64)"/><path class="cls-27" d="M180.78,89.46l-8,14.05,38-.16-19.4,33.92a25,25,0,0,1,12.16,7l31.45-55Z" transform="translate(0 6.64)"/><path class="cls-28" d="M152.85,204.7,99.52,113.23l-8,14L153,232.73l26.56-46.47a25,25,0,0,1-12.17-6.95Z" transform="translate(0 6.64)"/><path class="cls-29" d="M130.16,102.84l-8.1-14L0,88.9l31.91,55.21a25.11,25.11,0,0,1,12.22-6.88L24.28,102.9Z" transform="translate(0 6.64)"/><path class="cls-30" d="M82.71,204,68.27,179a25.13,25.13,0,0,1-12,7.16L82.72,232l27.09-47-8.1-14Z" transform="translate(0 6.64)"/></g></g></g></svg>