<svg id="Capa_1" enable-background="new 0 0 512 512" height="512" viewBox="0 0 512 512" width="512" xmlns="http://www.w3.org/2000/svg"><g><path d="m512 256c0 141.385-114.615 256-256 256-54.947 0-105.851-17.311-147.555-46.777-2.603-1.839 2.659-10.46.129-12.392-25.335-19.352-46.95-43.325-63.587-70.662-1.822-2.994-11.414.706-13.115-2.367-20.31-36.691-31.872-78.896-31.872-123.802 0-141.385 114.615-256 256-256s256 114.615 256 256z" fill="#1f3597"/><path d="m481.042 232.255c0 111.174-90.124 201.298-201.298 201.298s-201.297-90.124-201.297-201.298 90.124-201.297 201.298-201.297 201.297 90.124 201.297 201.297z" fill="#2740b1"/><path d="m46.873 237.724c-4.136 0-7.5-3.364-7.5-7.5v-198.448c0-4.136 3.364-7.5 7.5-7.5h198.447c4.136 0 7.5 3.364 7.5 7.5v198.447c0 4.136-3.364 7.5-7.5 7.5h-198.447z" fill="#2dd2e3"/><path d="m95.894 237.724h-49.021c-4.136 0-7.5-3.364-7.5-7.5v-198.448c0-4.136 3.364-7.5 7.5-7.5h49.021c-4.136 0-7.5 3.364-7.5 7.5v198.447c0 4.136 3.364 7.501 7.5 7.501z" fill="#00c8de"/><path d="m245.319 31.777v198.447h-198.447v-198.447zm0-15h-198.447c-8.284 0-15 6.716-15 15v198.447c0 8.284 6.716 15 15 15h198.447c8.284 0 15-6.716 15-15v-198.447c0-8.285-6.716-15-15-15z" fill="#87e0ec"/><path d="m296.681 237.724c-4.136 0-7.5-3.364-7.5-7.5v-168.448c0-4.136 3.364-7.5 7.5-7.5h168.447c4.136 0 7.5 3.364 7.5 7.5v168.447c0 4.136-3.364 7.5-7.5 7.5h-168.447z" fill="#ff5e95"/><path d="m340 237.724h-43.319c-4.136 0-7.5-3.364-7.5-7.5v-168.448c0-4.136 3.364-7.5 7.5-7.5h43.319c-4.136 0-7.5 3.364-7.5 7.5v168.447c0 4.136 3.364 7.501 7.5 7.501z" fill="#ff3980"/><path d="m465.128 61.777v168.447h-168.447v-168.447zm0-15h-168.447c-8.284 0-15 6.716-15 15v168.447c0 8.284 6.716 15 15 15h168.447c8.284 0 15-6.716 15-15v-168.447c0-8.285-6.716-15-15-15z" fill="#ffa2c3"/><path d="m266.681 487.724c-4.136 0-7.5-3.364-7.5-7.5v-198.448c0-4.136 3.364-7.5 7.5-7.5h198.447c4.136 0 7.5 3.364 7.5 7.5v198.447c0 4.136-3.364 7.5-7.5 7.5h-198.447z" fill="#4bcd5c"/><path d="m311.617 487.724h-44.936c-4.136 0-7.5-3.364-7.5-7.5v-198.448c0-4.136 3.364-7.5 7.5-7.5h44.936c-4.136 0-7.5 3.364-7.5 7.5v198.447c0 4.136 3.364 7.501 7.5 7.501z" fill="#00c53b"/><path d="m465.128 266.777h-198.447c-8.284 0-15 6.716-15 15v198.447c0 8.284 6.716 15 15 15h198.447c8.284 0 15-6.716 15-15v-198.447c0-8.285-6.716-15-15-15zm0 213.446h-198.447v-198.446h198.447z" fill="#afe6af"/><path d="m222.819 288.143v155.714c0 7.658-6.208 13.866-13.866 13.866h-107.533c-2.465-1.929-4.893-3.901-7.284-5.917-.622-.525-4.299-1.052-4.916-1.583-.073-.062-.145-.125-.218-.187-1.335-1.15-2.658-6.639-3.968-7.816-17.592-15.795-32.984-33.99-45.662-54.071v-100.006c0-7.658 6.208-13.866 13.866-13.866h155.714c7.659 0 13.867 6.208 13.867 13.866z" fill="#ffb509"/><path d="m87.554 288.143v155.714c0 2.22.522 4.318 1.449 6.178-15.855-13.658-30.017-29.225-42.131-46.346-.865-1.222-1.719-6.268-2.563-7.506-1.688-2.477-3.334-4.986-4.937-7.524v-100.516c0-7.658 6.208-13.866 13.866-13.866h48.181c-7.657 0-13.865 6.208-13.865 13.866z" fill="#ff9f00"/><path d="m230.319 281.777v168.447c0 8.284-6.716 15-15 15h-106.874c-6.649-4.698-13.064-9.705-19.225-15h126.099v-168.447h-168.447v121.913c-5.421-7.662-10.432-15.636-15-23.888v-98.025c0-8.284 6.716-15 15-15h168.447c8.284 0 15 6.715 15 15z" fill="#ffcd6b"/><path d="m138.75 87.583c0-4.188 3.395-7.583 7.583-7.583s7.583 3.395 7.583 7.583-3.395 7.583-7.583 7.583c-4.188.001-7.583-3.395-7.583-7.583zm7.583 84.521c4.188 0 7.583-3.395 7.583-7.583s-3.395-7.583-7.583-7.583-7.583 3.395-7.583 7.583 3.395 7.583 7.583 7.583zm56.334-53.552h-112.667c-4.142 0-7.5 3.358-7.5 7.5s3.358 7.5 7.5 7.5h112.667c4.142 0 7.5-3.358 7.5-7.5s-3.358-7.5-7.5-7.5zm221.112 23.948h-83.779c-4.143 0-7.5 3.358-7.5 7.5s3.357 7.5 7.5 7.5h83.779c4.143 0 7.5-3.358 7.5-7.5s-3.357-7.5-7.5-7.5zm-243.779 214.465h-36.965v-36.965c0-4.142-3.358-7.5-7.5-7.5s-7.5 3.358-7.5 7.5v36.965h-38.035c-4.142 0-7.5 3.358-7.5 7.5s3.358 7.5 7.5 7.5h38.035v38.035c0 4.142 3.358 7.5 7.5 7.5s7.5-3.358 7.5-7.5v-38.035h36.965c4.142 0 7.5-3.358 7.5-7.5s-3.358-7.5-7.5-7.5zm223.027-12.71c-2.93-2.929-7.678-2.929-10.607 0l-26.138 26.138-26.895-26.895c-2.93-2.929-7.678-2.929-10.607 0s-2.929 7.678 0 10.606l26.895 26.896-26.895 26.895c-2.929 2.929-2.929 7.678 0 10.606 1.465 1.464 3.385 2.197 5.304 2.197s3.839-.732 5.304-2.197l26.895-26.895 26.138 26.138c1.465 1.464 3.385 2.197 5.304 2.197s3.839-.732 5.304-2.197c2.929-2.929 2.929-7.678 0-10.606l-26.14-26.138 26.138-26.138c2.929-2.929 2.929-7.678 0-10.607z" fill="#fff"/></g></svg>