<svg id="Capa_1" enable-background="new 0 0 512 512" height="512" viewBox="0 0 512 512" width="512" xmlns="http://www.w3.org/2000/svg"><g><path d="m211.544 400.192-25.381 72.621h139.674l-25.381-72.621z" fill="#ddebfd"/><path d="m310.911 430.108-10.455-29.916h-88.912l-10.455 29.916z" fill="#bed9fd"/><path d="m139.456 492.273v13.457c0 2.541 2.06 4.601 4.601 4.601h223.885c2.541 0 4.601-2.06 4.601-4.601v-13.457c0-10.747-8.712-19.46-19.46-19.46h-194.167c-10.747 0-19.46 8.712-19.46 19.46z" fill="#bed9fd"/><path d="m0 387.502v-113.142c0-7.009 5.682-12.69 12.69-12.69h486.62c7.009 0 12.69 5.682 12.69 12.69v113.142c0 7.009-5.682 12.69-12.69 12.69h-486.62c-7.008 0-12.69-5.681-12.69-12.69z" fill="#ddebfd"/><path d="m512 353.237h-512v-338.877c0-7.009 5.682-12.69 12.69-12.69h486.62c7.009 0 12.69 5.682 12.69 12.69z" fill="#407194"/><path d="m35.533 42.279v270.349c0 2.803 2.273 5.076 5.076 5.076h430.781c2.803 0 5.076-2.273 5.076-5.076v-270.349c0-2.804-2.273-5.076-5.076-5.076h-430.78c-2.804-.001-5.077 2.272-5.077 5.076z" fill="#ddebfd"/><g><g fill="#407194"><path d="m398.155 255.72c-4.267 0-7.726-3.459-7.726-7.726v-8.24c0-5.647 4.223-10.417 9.823-11.096 8.618-1.043 15.115-8.388 15.115-17.086 0-4.887-2.09-9.562-5.735-12.826-3.693-3.308-8.477-4.823-13.467-4.274-7.777.859-14.119 7.108-15.08 14.86-.525 4.234-4.38 7.242-8.619 6.716-4.234-.526-7.241-4.384-6.716-8.619 1.833-14.772 13.911-26.681 28.719-28.316 9.279-1.027 18.565 1.935 25.473 8.122 6.913 6.192 10.878 15.062 10.878 24.338 0 15.211-10.483 28.244-24.938 31.744v4.678c0 4.266-3.459 7.725-7.727 7.725z"/><path d="m398.155 291.353c-4.267 0-7.726-3.459-7.726-7.726v-2.769c0-4.267 3.459-7.726 7.726-7.726s7.726 3.459 7.726 7.726v2.769c.001 4.267-3.458 7.726-7.726 7.726z"/></g><g fill="#80b6fc"><path d="m407.691 99.955h-165.515c-4.267 0-7.726-3.459-7.726-7.726s3.459-7.726 7.726-7.726h165.515c4.267 0 7.726 3.459 7.726 7.726s-3.459 7.726-7.726 7.726z"/><path d="m407.691 149.504h-165.515c-4.267 0-7.726-3.459-7.726-7.726s3.459-7.726 7.726-7.726h165.515c4.267 0 7.726 3.459 7.726 7.726s-3.459 7.726-7.726 7.726z"/><path d="m312.018 199.052h-69.842c-4.267 0-7.726-3.459-7.726-7.726s3.459-7.726 7.726-7.726h69.842c4.267 0 7.726 3.459 7.726 7.726s-3.459 7.726-7.726 7.726z"/></g></g><g><path d="m147.024 119.068c0-.191.063-.445.127-.699l11.827-38.786c.699-2.226 3.561-3.306 6.485-3.306s5.786 1.081 6.486 3.306l11.89 38.786c.063.254.127.508.127.699 0 2.353-3.624 4.069-6.358 4.069-1.589 0-2.861-.509-3.243-1.844l-2.162-7.948h-13.417l-2.162 7.948c-.381 1.335-1.653 1.844-3.243 1.844-2.733.001-6.357-1.716-6.357-4.069zm23.08-13.352-4.642-17.041-4.642 17.041z" fill="#365f7e"/></g><g fill="#80b6fc"><ellipse cx="96.432" cy="103.5" rx="18.371" ry="18.371" transform="matrix(.383 -.924 .924 .383 -36.092 152.984)"/><ellipse cx="96.432" cy="184.378" rx="18.371" ry="18.371" transform="matrix(.383 -.924 .924 .383 -110.814 202.911)"/><ellipse cx="96.432" cy="265.255" rx="18.371" ry="18.371" transform="matrix(.383 -.924 .924 .383 -185.535 252.838)"/></g><g><path d="m150.203 160.588c0-2.035 2.162-3.052 4.324-3.052h13.035c6.358 0 12.716 2.289 12.716 11.318 0 5.15-2.035 8.52-5.404 9.982 3.878 1.462 6.549 3.815 6.549 10.173v1.335c0 10.046-5.595 13.67-12.78 13.67h-14.115c-2.67 0-4.324-1.399-4.324-2.988v-40.438zm9.856 14.433h6.676c2.416 0 3.624-2.225 3.624-4.387 0-2.225-1.208-4.451-3.624-4.451h-6.676zm6.358 20.347c3.179 0 5.086-1.78 5.086-5.85v-1.017c0-4.324-1.907-5.85-5.086-5.85h-6.358v12.717z" fill="#365f7e"/></g><g><path d="m165.336 247.062c-3.625 0-5.723 2.035-5.723 6.358v16.85c0 4.324 2.098 6.358 5.786 6.358 5.087 0 5.405-3.879 5.595-6.358.191-2.353 2.353-2.989 4.896-2.989 3.434 0 5.023.89 5.023 4.706 0 8.457-6.867 13.289-15.959 13.289-8.33 0-15.26-4.069-15.26-15.005v-16.85c0-10.937 6.931-15.006 15.26-15.006 9.092 0 15.959 4.578 15.959 12.653 0 3.815-1.589 4.705-4.959 4.705-2.67 0-4.832-.7-4.959-2.988-.064-1.654-.255-5.723-5.659-5.723z" fill="#365f7e"/></g><path d="m340.892 233.406h-95.89c-10.247 0-18.553 8.307-18.553 18.553v95.89c0 10.349 13.139 14.786 19.413 6.556l24.737-32.448c.617-.809 1.805-.889 2.524-.169l56.658 56.658c3.967 3.967 10.398 3.967 14.365 0l27.343-27.343c3.967-3.967 3.967-10.398 0-14.365l-56.659-56.658c-.719-.719-.639-1.908.169-2.524l32.448-24.737c8.231-6.274 3.794-19.413-6.555-19.413z" fill="#e27c48"/></g></svg>