<svg id="Capa_1" enable-background="new 0 0 510 510" height="512" viewBox="0 0 510 510" width="512" xmlns="http://www.w3.org/2000/svg" xmlns:xlink="http://www.w3.org/1999/xlink"><linearGradient id="lg1"><stop offset="0" stop-color="#f9f5f3"/><stop offset="1" stop-color="#d8e8f0"/></linearGradient><linearGradient id="SVGID_1_" gradientUnits="userSpaceOnUse" x1="306.544" x2="280.375" xlink:href="#lg1" y1="56.385" y2="114.612"/><linearGradient id="lg2"><stop offset="0" stop-color="#678d98" stop-opacity="0"/><stop offset=".9957" stop-color="#678d98" stop-opacity=".996"/><stop offset="1" stop-color="#678d98"/></linearGradient><linearGradient id="SVGID_00000069383395463165991270000016623076770253547957_" gradientUnits="userSpaceOnUse" x1="314.643" x2="278.643" xlink:href="#lg2" y1="96.669" y2="114.002"/><linearGradient id="lg3"><stop offset="0" stop-color="#fd4755"/><stop offset="1" stop-color="#a72b2b"/></linearGradient><linearGradient id="SVGID_00000066513821406213329370000016639241308504736943_" gradientUnits="userSpaceOnUse" x1="313.469" x2="270.135" xlink:href="#lg3" y1="113.86" y2="141.86"/><linearGradient id="lg4"><stop offset="0" stop-color="#a72b2b" stop-opacity="0"/><stop offset="1" stop-color="#42210b"/></linearGradient><linearGradient id="SVGID_00000053505198321869391630000011560516879295096993_" gradientUnits="userSpaceOnUse" x1="312.627" x2="281.293" xlink:href="#lg4" y1="128.161" y2="153.494"/><linearGradient id="SVGID_00000074431932848424863880000016577282887468614813_" gradientUnits="userSpaceOnUse" x1="318.146" x2="286.812" xlink:href="#lg3" y1="30.67" y2="66.67"/><linearGradient id="lg5"><stop offset="0" stop-color="#fef0ae"/><stop offset="1" stop-color="#fbc56d"/></linearGradient><linearGradient id="SVGID_00000158730179763646746110000007408107058593113218_" gradientUnits="userSpaceOnUse" x1="255" x2="255" xlink:href="#lg5" y1="212" y2="268"/><linearGradient id="lg6"><stop offset="0" stop-color="#dc8758" stop-opacity="0"/><stop offset=".9957" stop-color="#dc8758" stop-opacity=".996"/><stop offset="1" stop-color="#dc8758"/></linearGradient><linearGradient id="SVGID_00000136373970887455739250000008324216503586747312_" gradientUnits="userSpaceOnUse" x1="333.171" x2="298.671" xlink:href="#lg6" y1="240.857" y2="239.857"/><linearGradient id="SVGID_00000180332162002216713040000008951534357902366630_" gradientUnits="userSpaceOnUse" x1="160.513" x2="340.898" xlink:href="#lg5" y1="274.154" y2="454.539"/><linearGradient id="SVGID_00000129908214561996716090000015742416843810525600_" gradientUnits="userSpaceOnUse" x1="328.18" x2="179.684" xlink:href="#lg5" y1="441.82" y2="293.325"/><linearGradient id="SVGID_00000174583564802241920360000004364858851789093271_" gradientUnits="userSpaceOnUse" x1="184.68" x2="300.43" xlink:href="#lg5" y1="298.32" y2="414.071"/><linearGradient id="SVGID_00000000934956676745231090000007503930509983992962_" gradientUnits="userSpaceOnUse" x1="215.825" x2="251.04" xlink:href="#lg1" y1="88.643" y2="153.855"/><linearGradient id="SVGID_00000032626877188535990690000000142807138331849891_" gradientUnits="userSpaceOnUse" x1="242.804" x2="242.804" xlink:href="#lg2" y1="204.667" y2="227.333"/><linearGradient id="SVGID_00000067227509593889100390000011316553245145395862_" gradientUnits="userSpaceOnUse" x1="168.81" x2="270.81" xlink:href="#lg3" y1="76" y2="228"/><linearGradient id="SVGID_00000174574741392372819990000002262243540773036175_" gradientUnits="userSpaceOnUse" x1="217.332" x2="319.332" xlink:href="#lg3" y1="43.44" y2="195.44"/><linearGradient id="SVGID_00000091705938014862285660000012566311078014498203_" gradientUnits="userSpaceOnUse" x1="255" x2="255" xlink:href="#lg6" y1="424.5" y2="499.667"/><linearGradient id="SVGID_00000091715746685692196950000008283198230297127557_" gradientUnits="userSpaceOnUse" x1="342.487" x2="224.487" xlink:href="#lg6" y1="445.67" y2="360.17"/><linearGradient id="SVGID_00000043446162903808079080000001235431333594749849_" gradientUnits="userSpaceOnUse" x1="231.061" x2="274.23" y1="343.273" y2="386.442"><stop offset="0" stop-color="#fbc56d"/><stop offset="1" stop-color="#c5715a"/></linearGradient><linearGradient id="lg7"><stop offset="0" stop-color="#8c3d27" stop-opacity="0"/><stop offset="1" stop-color="#8c3d27"/></linearGradient><linearGradient id="SVGID_00000002386793886018020270000006392777605539985824_" gradientUnits="userSpaceOnUse" x1="280.867" x2="221.2" xlink:href="#lg7" y1="355.043" y2="379.71"/><linearGradient id="SVGID_00000008115903016279881750000011443806806725825957_" gradientUnits="userSpaceOnUse" x1="265.288" x2="232.621" xlink:href="#lg7" y1="376.217" y2="362.217"/><linearGradient id="SVGID_00000183224803442842757250000012823377664914401933_" gradientTransform="matrix(-1 0 0 1 528.704 0)" gradientUnits="userSpaceOnUse" x1="283.992" x2="251.325" xlink:href="#lg7" y1="376.217" y2="362.217"/><linearGradient id="SVGID_00000132083231092169970210000006668491992668840891_" gradientUnits="userSpaceOnUse" x1="245.438" x2="266.438" xlink:href="#lg7" y1="377.856" y2="344.106"/><linearGradient id="SVGID_00000161601405493848330250000001693217620445626043_" gradientUnits="userSpaceOnUse" x1="262.952" x2="261.202" xlink:href="#lg7" y1="373.594" y2="340.594"/><linearGradient id="SVGID_00000165932740742418244970000001849702201628859025_" gradientUnits="userSpaceOnUse" x1="208.39" x2="208.39" xlink:href="#lg4" y1="188.667" y2="228.667"/><linearGradient id="SVGID_00000069378361376779620280000016661855794628401082_" gradientUnits="userSpaceOnUse" x1="279.547" x2="279.547" xlink:href="#lg4" y1="188.667" y2="228.667"/><g><g><path d="m291.283 226.622h-72.619c-10.118 0-17.483-9.598-14.864-19.371l53.31-198.954c1.311-4.894 5.746-8.297 10.812-8.297h81.304c7.36 0 12.717 6.982 10.812 14.091l-53.891 201.125c-1.802 6.728-7.899 11.406-14.864 11.406z" fill="url(#SVGID_1_)"/><path d="m348.29 57.96-42.14 157.26c-1.81 6.72-7.9 11.4-14.87 11.4h-72.62c-10.11 0-17.48-9.6-14.86-19.37l53.31-198.95c1.31-4.9 5.75-8.3 10.81-8.3h22.41l33.5 33.5z" fill="url(#SVGID_00000069383395463165991270000016623076770253547957_)"/><g><path d="m360.039 14.091-53.891 201.125c-1.803 6.728-7.899 11.406-14.864 11.406h-19.192l60.722-226.622h16.412c7.361 0 12.718 6.982 10.813 14.091z" fill="url(#SVGID_00000066513821406213329370000016639241308504736943_)"/><path d="m348.29 57.96-42.14 157.26c-1.81 6.72-7.9 11.4-14.87 11.4h-19.19l51.74-193.12z" fill="url(#SVGID_00000053505198321869391630000011560516879295096993_)"/><path d="m267.922 0h22.411l-60.723 226.622h-10.946c-10.118 0-17.483-9.598-14.864-19.371l53.31-198.954c1.311-4.894 5.746-8.297 10.812-8.297z" fill="url(#SVGID_00000074431932848424863880000016577282887468614813_)"/></g></g><path d="m307.977 298.475h-105.954c-5.719 0-10.708-3.881-12.116-9.424l-14.273-56.223c-3.195-12.586-.455-25.684 7.518-35.933 7.973-10.25 19.993-16.128 32.979-16.128h77.739c12.985 0 25.006 5.878 32.979 16.128s10.712 23.347 7.517 35.933l-14.273 56.223c-1.408 5.542-6.398 9.424-12.116 9.424zm-96.23-25h86.507l11.881-46.799c1.283-5.055.183-10.315-3.02-14.432s-8.03-6.478-13.246-6.478h-77.739c-5.215 0-10.043 2.361-13.246 6.478s-4.302 9.377-3.019 14.433z" fill="url(#SVGID_00000158730179763646746110000007408107058593113218_)"/><path d="m293.869 180.766h-7.369v25h7.369c5.216 0 10.044 2.361 13.246 6.478s4.303 9.377 3.02 14.432l-11.881 46.799h-11.754v25h21.477c5.719 0 10.708-3.881 12.115-9.424l14.273-56.223c3.195-12.586.456-25.683-7.517-35.933-7.973-10.251-19.994-16.129-32.979-16.129z" fill="url(#SVGID_00000136373970887455739250000008324216503586747312_)"/><path d="m270.979 234.14c12.052-12.642 33.317-6.944 37.434 10.03 2.971 12.251 15.581 19.531 27.676 15.979 16.759-4.922 32.325 10.645 27.403 27.403-3.552 12.095 3.728 24.705 15.979 27.676 16.974 4.117 22.672 25.381 10.03 37.434-9.124 8.699-9.124 23.259 0 31.958 12.642 12.052 6.944 33.317-10.03 37.434-12.251 2.971-19.531 15.581-15.979 27.676 4.922 16.759-10.645 32.325-27.403 27.403-12.095-3.553-24.705 3.728-27.676 15.979-4.117 16.974-25.381 22.672-37.434 10.03-8.699-9.124-23.259-9.124-31.958 0-12.052 12.642-33.317 6.944-37.434-10.03-2.971-12.251-15.581-19.531-27.676-15.979-16.759 4.922-32.325-10.645-27.403-27.403 3.553-12.095-3.728-24.705-15.979-27.676-16.974-4.117-22.672-25.381-10.03-37.434 9.124-8.699 9.124-23.259 0-31.958-12.642-12.052-6.944-33.317 10.03-37.434 12.251-2.971 19.531-15.581 15.979-27.676-4.922-16.759 10.645-32.325 27.403-27.403 12.095 3.553 24.705-3.728 27.676-15.979 4.117-16.974 25.381-22.672 37.434-10.03 8.699 9.124 23.259 9.124 31.958 0z" fill="url(#SVGID_00000180332162002216713040000008951534357902366630_)"/><circle cx="255" cy="368.641" fill="url(#SVGID_00000129908214561996716090000015742416843810525600_)" r="112.673"/><circle cx="255" cy="368.641" fill="url(#SVGID_00000174583564802241920360000004364858851789093271_)" r="96.731"/><g><path d="m218.717 226.622h72.619c10.118 0 12.981-9.598 10.362-19.371l-48.808-198.954c-1.311-4.894-5.746-8.297-10.812-8.297h-81.304c-7.36 0-12.717 6.982-10.812 14.091l53.891 201.125c1.802 6.728 7.899 11.406 14.864 11.406z" fill="url(#SVGID_00000000934956676745231090000007503930509983992962_)"/><path d="m203.852 215.216c1.803 6.728 7.899 11.406 14.864 11.406h72.619c10.118 0 17.483-9.598 14.864-19.371l-22.842-85.251h-104.482z" fill="url(#SVGID_00000032626877188535990690000000142807138331849891_)"/><g><path d="m149.961 14.091 53.891 201.125c1.803 6.728 7.899 11.406 14.864 11.406h19.192l-60.722-226.622h-16.412c-7.361 0-12.718 6.982-10.813 14.091z" fill="url(#SVGID_00000067227509593889100390000011316553245145395862_)"/><path d="m242.078 0h-22.411l60.723 226.622h10.946c10.118 0 17.483-9.598 14.864-19.371l-53.31-198.954c-1.311-4.894-5.746-8.297-10.812-8.297z" fill="url(#SVGID_00000174574741392372819990000002262243540773036175_)"/></g></g><path d="m127.262 367c.47 6.348-1.771 12.861-6.763 17.62-12.642 12.052-6.944 33.317 10.03 37.434 12.251 2.971 19.531 15.581 15.979 27.676-4.922 16.759 10.645 32.325 27.403 27.403 12.095-3.552 24.705 3.728 27.676 15.979 4.117 16.974 25.381 22.672 37.434 10.03 8.699-9.124 23.259-9.124 31.958 0 12.052 12.642 33.317 6.944 37.434-10.03 2.971-12.251 15.581-19.531 27.676-15.979 16.759 4.922 32.325-10.645 27.403-27.403-3.552-12.095 3.728-24.705 15.979-27.676 16.974-4.117 22.672-25.381 10.03-37.434-4.992-4.759-7.233-11.271-6.763-17.62z" fill="url(#SVGID_00000091705938014862285660000012566311078014498203_)"/><path d="m308.132 345.367-12.619.619-34.057-34.057-41.507 96.228 87.63 87.63c.323-.86.608-1.748.834-2.676 2.971-12.251 15.581-19.531 27.676-15.979 16.759 4.922 32.325-10.645 27.403-27.403-3.552-12.095 3.728-24.705 15.979-27.676 1.407-.341 2.728-.81 3.976-1.372z" fill="url(#SVGID_00000091715746685692196950000008283198230297127557_)"/><g><path d="m302.125 340.145-22.538-5.446c-2.097-.507-3.929-1.778-5.137-3.564l-12.992-19.205c-1.572-2.323-3.979-3.569-6.457-3.77-2.477.201-4.885 1.447-6.457 3.77l-12.992 19.205c-1.209 1.786-3.041 3.058-5.137 3.564l-22.538 5.446c-6.114 1.477-8.661 8.774-4.796 13.736l14.25 18.291c1.326 1.702 1.968 3.837 1.802 5.987l-1.786 23.118c-.484 6.271 5.668 10.949 11.581 8.806l21.799-7.901c1.377-.499 2.846-.628 4.273-.407 1.426-.221 2.895-.092 4.273.407l21.799 7.901c5.913 2.143 12.066-2.535 11.581-8.806l-1.786-23.118c-.166-2.151.477-4.286 1.802-5.987l14.25-18.291c3.867-4.962 1.319-12.259-4.794-13.736z" fill="url(#SVGID_00000043446162903808079080000001235431333594749849_)"/><path d="m259.273 402.182 21.799 7.901c5.913 2.143 12.066-2.535 11.581-8.806l-1.786-23.118c-.166-2.151.477-4.286 1.802-5.987l14.25-18.291c3.865-4.961 1.317-12.259-4.796-13.736l-22.538-5.446c-2.097-.507-3.929-1.778-5.137-3.564l-12.992-19.205c-1.572-2.323-3.979-3.569-6.457-3.77v93.616c1.427-.222 2.896-.093 4.274.406z" fill="url(#SVGID_00000002386793886018020270000006392777605539985824_)"/><path d="m302.125 340.145-22.538-5.446c-.769-.186-1.502-.477-2.183-.856l-57.454 74.315c2.254 2.178 5.654 3.13 8.979 1.925l21.799-7.901c1.377-.499 2.846-.628 4.273-.407 1.426-.221 2.895-.092 4.273.407l21.799 7.901c5.913 2.143 12.066-2.535 11.581-8.806l-1.786-23.118c-.166-2.151.477-4.286 1.802-5.987l14.25-18.291c3.866-4.962 1.318-12.259-4.795-13.736z" fill="url(#SVGID_00000008115903016279881750000011443806806725825957_)"/><path d="m207.875 340.145 22.538-5.446c.769-.186 1.502-.477 2.183-.856l57.454 74.315c-2.254 2.178-5.654 3.13-8.979 1.925l-21.799-7.901c-1.377-.499-2.846-.628-4.273-.407-1.426-.221-2.895-.092-4.273.407l-21.799 7.901c-5.913 2.143-12.066-2.535-11.581-8.806l1.786-23.118c.166-2.151-.477-4.286-1.802-5.987l-14.25-18.291c-3.866-4.962-1.318-12.259 4.795-13.736z" fill="url(#SVGID_00000183224803442842757250000012823377664914401933_)"/><path d="m201.877 345.367c-1.072 2.703-.815 5.923 1.203 8.513l14.25 18.291c1.326 1.702 1.968 3.837 1.802 5.987l-1.786 23.118c-.484 6.271 5.668 10.949 11.581 8.806l21.799-7.901c1.377-.499 2.846-.628 4.273-.407 1.426-.221 2.895-.092 4.273.407l21.799 7.901c5.913 2.143 12.066-2.535 11.581-8.806l-1.786-23.118c-.092-1.193.073-2.379.458-3.491z" fill="url(#SVGID_00000132083231092169970210000006668491992668840891_)"/><path d="m308.132 345.367c1.072 2.703.815 5.923-1.203 8.513l-14.25 18.291c-1.326 1.702-1.968 3.837-1.802 5.987l1.786 23.118c.484 6.271-5.668 10.949-11.581 8.806l-21.799-7.901c-1.377-.499-2.846-.628-4.273-.407-1.426-.221-2.895-.092-4.273.407l-21.799 7.901c-5.913 2.143-12.066-2.535-11.581-8.806l1.786-23.118c.092-1.193-.073-2.379-.458-3.491z" fill="url(#SVGID_00000161601405493848330250000001693217620445626043_)"/></g><g><path d="m237.91 226.62h-19.19c-6.97 0-13.06-4.68-14.87-11.4l-24.98-93.22h31.01z" fill="url(#SVGID_00000165932740742418244970000001849702201628859025_)"/><path d="m291.34 226.62h-10.95l-28.03-104.62h31l22.84 85.25c2.62 9.77-4.75 19.37-14.86 19.37z" fill="url(#SVGID_00000069378361376779620280000016661855794628401082_)"/></g></g></svg>