<svg height="512" viewBox="0 0 58 53" width="512" xmlns="http://www.w3.org/2000/svg"><g id="Page-1" fill="none" fill-rule="evenodd"><g id="016---Notepad-and-Pen" fill-rule="nonzero"><path id="Shape" d="m50.95 23.74-4.11 2.84-3.863-3.58-1.827-4.64 4.11-2.85 3.796 3.49z" fill="#bdc3c7"/><path id="Shape" d="m38 38v13c-.0032948 1.1032019-.8967981 1.9967052-2 2h-34c-1.10320187-.0032948-1.9967052-.8967981-2-2v-37h38z" fill="#f5efca"/><path id="Shape" d="m24 48h-18c-.55228475 0-1-.4477153-1-1s.44771525-1 1-1h18c.5522847 0 1 .4477153 1 1s-.4477153 1-1 1z" fill="#cbb292"/><path id="Shape" d="m56.71 19.76-5.76 3.98-5.69-8.23 5.76-3.98c1.3617329-.9400161 3.2274512-.5999811 4.17.76l2.28 3.29c.9410084 1.3648761.6012203 3.2337109-.76 4.18z" fill="#ff5364"/><path id="Shape" d="m20.85 41.75-4.76 1.15c-.4001172.094232-.8171417-.0659868-1.0512382-.4038807-.2340964-.337894-.2375722-.7846237-.0087618-1.1261193l2.76-4.05z" fill="#464f5d"/><path id="Shape" d="m46.84 26.58c-21.076 14.578-19.649 13.607-19.75 13.64l-5.67-8.2c.117-.117-1 .668 19.73-13.66z" fill="#3b97d3"/><path id="Shape" d="m27.09 40.22c-.193.1-.7.189-6.24 1.53l-3.06-4.43c3.712-5.457 3.516-5.186 3.63-5.3z" fill="#fdd7ad"/><g fill="#cbb292"><path id="Shape" d="m28.85 23h-22.85c-.55228475 0-1-.4477153-1-1s.44771525-1 1-1h22.85c.5522847 0 1 .4477153 1 1s-.4477153 1-1 1z"/><path id="Shape" d="m21.62 28h-15.62c-.55228475 0-1-.4477153-1-1s.44771525-1 1-1h15.62c.5522847 0 1 .4477153 1 1s-.4477153 1-1 1z"/><path id="Shape" d="m16.57 33h-10.57c-.55228475 0-1-.4477153-1-1s.44771525-1 1-1h10.57c.5522847 0 1 .4477153 1 1s-.4477153 1-1 1z"/><path id="Shape" d="m13.16 38h-7.16c-.55228475 0-1-.4477153-1-1s.44771525-1 1-1h7.16c.5522847 0 1 .4477153 1 1s-.4477153 1-1 1z"/><path id="Shape" d="m10.84 43h-4.84c-.55228475 0-1-.4477153-1-1s.44771525-1 1-1h4.84c.5522847 0 1 .4477153 1 1s-.4477153 1-1 1z"/></g><path id="Shape" d="m34 6c2.209139 0 4 1.790861 4 4v6h-38v-6c0-2.209139 1.790861-4 4-4z" fill="#ff5364"/><path id="Shape" d="m33 49h-3c-.5522847 0-1-.4477153-1-1s.4477153-1 1-1h2v-2c0-.5522847.4477153-1 1-1s1 .4477153 1 1v3c0 .5522847-.4477153 1-1 1z" fill="#cbb292"/><path id="Shape" d="m34 6c0 3.36-1.76 6-4 6-.5522847 0-1-.4477153-1-1s.4477153-1 1-1c.94 0 2-1.71 2-4s-1.06-4-2-4-2 1.71-2 4h-2c0-3.36 1.76-6 4-6s4 2.64 4 6z" fill="#bdc3c7"/><path id="Shape" d="m23 6c0 3.36-1.76 6-4 6-.5522847 0-1-.4477153-1-1s.4477153-1 1-1c.94 0 2-1.71 2-4s-1.06-4-2-4-2 1.71-2 4h-2c0-3.36 1.76-6 4-6s4 2.64 4 6z" fill="#bdc3c7"/><path id="Shape" d="m12 6c0 3.36-1.76 6-4 6-.55228475 0-1-.4477153-1-1s.44771525-1 1-1c.94 0 2-1.71 2-4s-1.06-4-2-4-2 1.71-2 4h-2c0-3.36 1.76-6 4-6s4 2.64 4 6z" fill="#bdc3c7"/></g></g></svg>