<svg xmlns="http://www.w3.org/2000/svg" xmlns:xlink="http://www.w3.org/1999/xlink" viewBox="0 0 840.78 594.78"><defs><style>.cls-1{fill:#f9c33e;}.cls-2{fill:none;}.cls-3{isolation:isolate;}.cls-4{fill:#fff;}.cls-5{fill:#1a1a1a;}.cls-6{fill:url(#linear-gradient);}.cls-7{fill:url(#radial-gradient);}.cls-8{fill:url(#radial-gradient-2);}.cls-9{clip-path:url(#clip-path);}.cls-10{fill:#7e5923;opacity:0.41;}.cls-10,.cls-17{mix-blend-mode:overlay;}.cls-11{fill:#fedfb1;}.cls-11,.cls-17{opacity:0.29;}.cls-11,.cls-20{mix-blend-mode:soft-light;}.cls-12{fill:#272626;}.cls-13{fill:#636363;}.cls-14{clip-path:url(#clip-path-2);}.cls-15{fill:#f9af3d;}.cls-16{clip-path:url(#clip-path-3);}.cls-17{fill:#181818;}.cls-18{fill:#474747;}.cls-19{clip-path:url(#clip-path-4);}.cls-20{fill:#c1c0c0;opacity:0.59;}.cls-21{clip-path:url(#clip-path-6);}.cls-22{fill:url(#linear-gradient-2);}.cls-23{fill:url(#linear-gradient-3);}.cls-24{fill:url(#linear-gradient-4);}.cls-25{fill:url(#linear-gradient-5);}.cls-26{fill:url(#linear-gradient-6);}.cls-27{fill:url(#linear-gradient-7);}</style><linearGradient id="linear-gradient" x1="382.72" y1="141.36" x2="457.4" y2="141.36" gradientUnits="userSpaceOnUse"><stop offset="0" stop-color="#f05024"/><stop offset="1" stop-color="#f99f1c"/></linearGradient><radialGradient id="radial-gradient" cx="548.99" cy="382.85" r="47.4" gradientUnits="userSpaceOnUse"><stop offset="0" stop-color="#29a64a"/><stop offset="0.25" stop-color="#25a14d"/><stop offset="0.55" stop-color="#1b9358"/><stop offset="0.85" stop-color="#0a7d68"/><stop offset="1" stop-color="#006f72"/></radialGradient><radialGradient id="radial-gradient-2" cx="291.84" cy="382.85" r="57.25" gradientUnits="userSpaceOnUse"><stop offset="0" stop-color="#0099d9"/><stop offset="0.06" stop-color="#0395d3"/><stop offset="0.7" stop-color="#256497"/><stop offset="1" stop-color="#32517f"/></radialGradient><clipPath id="clip-path"><path class="cls-1" d="M379.62,112.47s-3.57,4.14-7.08,3.45c-.06-.26.42-.53.35-.8a.37.37,0,0,0-.1-.17l-.43-.51a.4.4,0,0,1-.09-.17.3.3,0,0,1,0-.16,2.53,2.53,0,0,1,.24-.53.33.33,0,0,0,.08-.18.24.24,0,0,0-.17-.23,1,1,0,0,0-.29-.08,1.06,1.06,0,0,1-.33-.14.28.28,0,0,1-.15-.17.41.41,0,0,1,0-.11c0-.18-.24-.3-.2-.47a1,1,0,0,1,.24-.49,1.19,1.19,0,0,1,.25-.13,14.65,14.65,0,0,1,4.3-.89,6.84,6.84,0,0,1,3,.32c.1.23.24.43.34.67a.54.54,0,0,1,.06.35.4.4,0,0,0,0,.15.14.14,0,0,1,0,.07S379.65,112.46,379.62,112.47Z"/></clipPath><clipPath id="clip-path-2"><path class="cls-2" d="M395.07,82.71c-1.31.75-3.15,2.42-5,6.11-2.32,4.6-3.69,12.32-5.76,17-1.93,4.36-4.17,6-4.17,6s-1.94-.33-.83-1.44c3.32-3.36,5.08-9.2,5.62-12.34,1.21-6.94,5.65-16.58,8.8-17.6,3.51-1.13,5.06,1.07,5.06,1.07Z"/></clipPath><clipPath id="clip-path-3"><path class="cls-2" d="M365.18,92.43,395,82.76l3.77-1.22L415.86,76a.58.58,0,0,1,.32,0l50,11.79a.59.59,0,0,1,.46.55.59.59,0,0,1-.41.59l-42.78,13.9a.41.41,0,0,1-.22,0h0l-58-9.27a.59.59,0,0,1-.49-.54A.58.58,0,0,1,365.18,92.43Z"/></clipPath><clipPath id="clip-path-4"><path class="cls-2" d="M417.7,87.82c10.82-.1,20.17,1.18,24.54,3.13l.2,5,.51,12.72c0-1.82-11.3-3.19-25.21-3.06-13.33.13-24.22,1.59-25.09,3.31h-.07l-.33-13L392.14,92C395.83,89.67,405.87,87.93,417.7,87.82Z"/></clipPath><clipPath id="clip-path-6"><ellipse class="cls-2" cx="379.35" cy="111.33" rx="1.37" ry="1.45" transform="translate(243.94 482.77) rotate(-86.33)"/></clipPath><linearGradient id="linear-gradient-2" x1="263.28" y1="173.16" x2="374.3" y2="173.16" gradientUnits="userSpaceOnUse"><stop offset="0" stop-color="#f05024"/><stop offset="0.28" stop-color="#f26222"/><stop offset="0.85" stop-color="#f7921d"/><stop offset="1" stop-color="#f99f1c"/></linearGradient><linearGradient id="linear-gradient-3" x1="430.36" y1="228.88" x2="576.84" y2="228.88" xlink:href="#linear-gradient-2"/><linearGradient id="linear-gradient-4" x1="524.91" y1="297.44" x2="643.01" y2="297.44" xlink:href="#radial-gradient"/><linearGradient id="linear-gradient-5" x1="370.75" y1="404.13" x2="537.78" y2="404.13" xlink:href="#radial-gradient"/><linearGradient id="linear-gradient-6" x1="197.18" y1="296.93" x2="444.11" y2="296.93" gradientUnits="userSpaceOnUse"><stop offset="0" stop-color="#0099d9"/><stop offset="0.19" stop-color="#0494d2"/><stop offset="0.45" stop-color="#1085c0"/><stop offset="0.75" stop-color="#236da2"/><stop offset="1" stop-color="#355685"/></linearGradient><linearGradient id="linear-gradient-7" x1="303.85" y1="458.25" x2="405.5" y2="458.25" xlink:href="#linear-gradient-6"/></defs><g class="cls-3"><g id="Layer_2" data-name="Layer 2"><g id="Layer_1-2" data-name="Layer 1"><rect class="cls-4" width="840.78" height="594.78"/><path class="cls-5" d="M417.74,105.57c13.91-.13,25.19,1.24,25.21,3.06s-11.24,3.4-25.15,3.53-25.2-1.23-25.21-3a.4.4,0,0,1,.06-.23C393.52,107.16,404.41,105.7,417.74,105.57Z"/><path class="cls-5" d="M417.74,105.57c13.91-.13,25.19,1.24,25.21,3.06s-11.24,3.4-25.15,3.53-25.2-1.23-25.21-3a.4.4,0,0,1,.06-.23C393.52,107.16,404.41,105.7,417.74,105.57Z"/><circle class="cls-6" cx="420.06" cy="141.36" r="37.34"/><circle class="cls-7" cx="548.99" cy="382.85" r="37.34"/><circle class="cls-8" cx="291.84" cy="382.85" r="37.34"/><path class="cls-1" d="M379.62,112.47s-3.57,4.14-7.08,3.45c-.06-.26.42-.53.35-.8a.37.37,0,0,0-.1-.17l-.43-.51a.4.4,0,0,1-.09-.17.3.3,0,0,1,0-.16,2.53,2.53,0,0,1,.24-.53.33.33,0,0,0,.08-.18.24.24,0,0,0-.17-.23,1,1,0,0,0-.29-.08,1.06,1.06,0,0,1-.33-.14.28.28,0,0,1-.15-.17.41.41,0,0,1,0-.11c0-.18-.24-.3-.2-.47a1,1,0,0,1,.24-.49,1.19,1.19,0,0,1,.25-.13,14.65,14.65,0,0,1,4.3-.89,6.84,6.84,0,0,1,3,.32c.1.23.24.43.34.67a.54.54,0,0,1,.06.35.4.4,0,0,0,0,.15.14.14,0,0,1,0,.07S379.65,112.46,379.62,112.47Z"/><g class="cls-9"><path class="cls-10" d="M372.05,113.71s5.51-1.62,6.88-2.33-8.46,2-8.46,2Z"/><path class="cls-10" d="M379.13,112.1s-5,4-7,3.15l-.27-.39s6-1.68,7.18-3.12S379.13,112.1,379.13,112.1Z"/><path class="cls-11" d="M371.86,114.35s5.86-1.47,7.34-2.7c0,0-7.42,2.61-7.84,2.71S371.86,114.35,371.86,114.35Z"/><path class="cls-11" d="M378.47,111s-6.78.41-7.61,1.15,7.68-1,7.68-1Z"/><path class="cls-11" d="M378.26,110.89s-7.21.3-8,.75c0,0,6.33-1.71,8.21-1.07S378.26,110.89,378.26,110.89Z"/><path class="cls-11" d="M379.09,112.48s-3.58,4.23-6.79,3.22,2.23,2.54,2.23,2.54S381.71,112.86,379.09,112.48Z"/></g><path class="cls-12" d="M365.18,92.43,395,82.76l3.77-1.22L415.86,76a.58.58,0,0,1,.32,0l50,11.79a.59.59,0,0,1,.46.55.59.59,0,0,1-.41.59l-42.78,13.9a.41.41,0,0,1-.22,0h0l-58-9.27a.59.59,0,0,1-.49-.54A.58.58,0,0,1,365.18,92.43Z"/><path class="cls-13" d="M365.18,92.43,395,82.76l3.77-1.22L415.86,76a.58.58,0,0,1,.32,0l50,11.79a.59.59,0,0,1,.08,1.12L416.61,77.19a.69.69,0,0,0-.32,0l-17.1,5.55L395.43,84l-29.81,9.66-.35,0a.59.59,0,0,1-.49-.54A.58.58,0,0,1,365.18,92.43Z"/><path class="cls-1" d="M395,82.76c-1.31.75-3.08,2.37-4.93,6.06-2.32,4.6-3.69,12.32-5.76,17-1.93,4.36-4.17,6-4.17,6s-1.94-.33-.83-1.44c3.32-3.36,5.08-9.2,5.62-12.34,1.21-6.94,5.65-16.58,8.8-17.6,3.51-1.13,5,1.11,5,1.11Z"/><g class="cls-14"><path class="cls-15" d="M381.63,111.57s-.12-4.8-.33-5.4,1.45-2.22,1.45-2.22.57,5.54.16,6.61A1.36,1.36,0,0,1,381.63,111.57Z"/><path class="cls-15" d="M384.86,105.81s-.57-3.57-1.55-4.06,1-4,1-4,2.32,3.18,2,5.47S384.86,105.81,384.86,105.81Z"/><path class="cls-15" d="M387.75,99.31s-2.54-4.33-2.38-5.5a18.09,18.09,0,0,1,1.37-3.61s1.09,6,1.58,6.2S387.75,99.31,387.75,99.31Z"/><path class="cls-15" d="M389.54,91.81s-1-5.57-.76-7.2a3.64,3.64,0,0,1,1.76-2.49s.48,6.21,1.53,6.36S389.54,91.81,389.54,91.81Z"/><path class="cls-15" d="M393.62,85.17s-1.36-4.33-.7-6.1,3.84.42,3.84.42-2.68,1.13-2.05,3.82S393.62,85.17,393.62,85.17Z"/></g><ellipse class="cls-15" cx="379.35" cy="111.33" rx="1.37" ry="1.45" transform="translate(243.94 482.77) rotate(-86.33)"/><g class="cls-16"><path class="cls-17" d="M416.66,69.54l-1.61,25.13-2.84,28.58L349,91.43S394.19,47.57,416.66,69.54Z"/></g><path class="cls-18" d="M417.7,87.82c10.82-.1,20.17,1.18,24.54,3.13l.2,5,.51,12.72c0-1.82-11.3-3.19-25.21-3.06-13.33.13-24.22,1.59-25.09,3.31h-.07l-.33-13L392.14,92C395.83,89.67,405.87,87.93,417.7,87.82Z"/><path class="cls-13" d="M417.62,104.72c12.51-.12,23.23,1.09,25.28,2.66l.05,1.25c0-1.82-11.3-3.19-25.21-3.06-13.33.13-24.22,1.59-25.09,3.31h-.07l0-1C394.65,106.31,405.21,104.84,417.62,104.72Z"/><path class="cls-18" d="M417.7,87.82c10.82-.1,20.17,1.18,24.54,3.13l.2,5,.51,12.72c0-1.82-11.3-3.19-25.21-3.06-13.33.13-24.22,1.59-25.09,3.31h-.07l-.33-13L392.14,92C395.83,89.67,405.87,87.93,417.7,87.82Z"/><g class="cls-19"><path class="cls-17" d="M418.18,86.54s-6.8,15.46-3.92,21.7-25.5,3-25.5,3l-.83-19.9S410.56,82.1,418.18,86.54Z"/></g><g class="cls-19"><path class="cls-20" d="M433.67,85.94c4.19,4.53,4.72,21.24,3.3,23.67s-7.48-.14-7.48-.14,2-20.7-1.86-24.68c-1.82-1.88,4-1.11,4-1.11S433.06,85.28,433.67,85.94Z"/></g><g class="cls-21"><path class="cls-10" d="M380.81,110.17s-.69,3-2.32,2.42,1.52-2.76,1.75-2.75a17.94,17.94,0,0,0-2-1l-2.53,2.41,2.1,4,4.75-.71S381.66,109.68,380.81,110.17Z"/></g><ellipse class="cls-11" cx="379.52" cy="110.84" rx="0.77" ry="0.89" transform="translate(244.6 482.47) rotate(-86.33)"/><path class="cls-22" d="M372.25,141.36A47.92,47.92,0,0,1,374,128.61H263.28l51.43,89.09h30.7l-36.08-62.5h65A47.52,47.52,0,0,1,372.25,141.36Z"/><path class="cls-23" d="M466.14,128.61a47.79,47.79,0,0,1-.32,26.59h65l-100.43,174h30.7L576.84,128.61Z"/><path class="cls-24" d="M540.14,245.69l-15.23,26.66,72.16-.31-36.79,64.35a47.67,47.67,0,0,1,23.07,13.23L643,245.25Z"/><path class="cls-25" d="M487.16,464.31,386,290.79l-15.23,26.65,116.64,200,50.39-88.15a47.56,47.56,0,0,1-23.09-13.18Z"/><path class="cls-26" d="M444.11,271.07,428.75,244.5l-231.57.12,60.55,104.74a47.5,47.5,0,0,1,23.17-13l-37.65-65.14Z"/><path class="cls-27" d="M354.09,462.92,326.7,415.55a47.58,47.58,0,0,1-22.85,13.58l50.27,87L405.5,427,390.14,400.4Z"/></g></g></g></svg>