<svg height="512" viewBox="0 0 64 64" width="512" xmlns="http://www.w3.org/2000/svg" xmlns:xlink="http://www.w3.org/1999/xlink"><linearGradient id="linear-gradient" gradientUnits="userSpaceOnUse" x1="3.25" x2="60.75" y1="32" y2="32"><stop offset="0" stop-color="#69b0e0"/><stop offset=".4" stop-color="#5199d1"/><stop offset="1" stop-color="#307abe"/></linearGradient><g id="Layer_23" data-name="Layer 23"><path d="m32 3.25a28.75 28.75 0 1 0 28.75 28.75 28.79 28.79 0 0 0 -28.75-28.75zm16.4 35.1a6.33 6.33 0 0 1 -5-2.44l-17 10.3a4.69 4.69 0 0 1 .35 1.79 4.75 4.75 0 1 1 -4.75-4.75 4.69 4.69 0 0 1 3.6 1.69l17-10.31a6.25 6.25 0 0 1 0-5.26l-17-10.31a4.69 4.69 0 0 1 -3.6 1.69 4.75 4.75 0 1 1 4.75-4.75 4.69 4.69 0 0 1 -.36 1.79l17 10.3a6.35 6.35 0 1 1 5 10.26z" fill="url(#linear-gradient)"/></g></svg>