<svg height="512" viewBox="0 0 512 512" width="512" xmlns="http://www.w3.org/2000/svg" xmlns:xlink="http://www.w3.org/1999/xlink"><linearGradient id="linear-gradient" gradientTransform="matrix(0 -1 1 0 0 512)" gradientUnits="userSpaceOnUse" x1="38.65" x2="473.35" y1="38.65" y2="473.35"><stop offset="0" stop-color="#549eff"/><stop offset="1" stop-color="#006db0"/></linearGradient><linearGradient id="linear-gradient-2" gradientUnits="userSpaceOnUse" x1="230.72" x2="497.46" y1="182.49" y2="449.24"><stop offset="0" stop-opacity=".35"/><stop offset="1" stop-opacity="0"/></linearGradient><g id="Layer_2" data-name="Layer 2"><g id="InterfaceIcon"><g id="_16.Share" data-name="16.Share"><rect id="Background" fill="url(#linear-gradient)" height="512" rx="131.96" transform="matrix(0 1 -1 0 512 0)" width="512"/><path d="m512 243.4v136.6a132 132 0 0 1 -132 132h-40.15l-219.32-219.32 70.26-53.89 198.8-117.79z" fill="url(#linear-gradient-2)"/><path id="_16.Share-2" d="m352.43 298.86a53.42 53.42 0 0 0 -39.79 17.7l-100.5-50.25a53.65 53.65 0 0 0 0-20.62l100.5-50.25a53.55 53.55 0 1 0 -12.78-25.56l-100.5 50.25a53.57 53.57 0 1 0 0 71.74l100.5 50.25a53.57 53.57 0 1 0 52.57-43.26z" fill="#fff" data-name="16.Share"/></g></g></g></svg>