<svg id="Capa_1" enable-background="new 0 0 512 512" height="512" viewBox="0 0 512 512" width="512" xmlns="http://www.w3.org/2000/svg"><g><path d="m378.93 155.014-122.93-38.742-92.93-29.286-62.454 23.939c-6.115 17.247-9.616 35.732-9.616 55.075 0 91.126 73.874 165 165 165 83.221 0 151.862-61.675 163.178-141.775z" fill="#6cf"/><path d="m419.178 189.225-40.248-34.211-122.93-38.742v214.728c83.221 0 151.862-61.675 163.178-141.775z" fill="#59abff"/><path d="m256 0c-71.783 0-132.689 46.921-155.383 110.926l62.454 36.061 15-25.986 40.957-10.986 25.986 15-15 25.986 10.986 40.985 15 8.648 11.016 6.352-11.016 25.972 62.93 4.028 30-51.973 70.248 4.211c1.075-7.607 1.822-15.319 1.822-23.224 0-91.128-73.874-166-165-166z" fill="#9bf243"/><path d="m256 0v200.634l11.016 6.352-11.016 25.972 62.93 4.028 30-51.973 70.248 4.211c1.075-7.607 1.822-15.319 1.822-23.224 0-91.128-73.874-166-165-166z" fill="#7dd96b"/><g><path d="m256 331c-24.901 0-45 20.099-45 45 0 24.899 20.099 45 45 45s45-20.101 45-45c0-24.901-20.099-45-45-45z" fill="#ffd9b3"/></g><g><path d="m256 421c-41.4 0-75 34.6-75 76v15h150v-15c0-41.4-33.6-76-75-76z" fill="#ffbe40"/></g><path d="m256 421v-90c24.901 0 45 20.099 45 45 0 24.899-20.099 45-45 45z" fill="#fb9"/><path d="m331 497v15h-75v-91c41.4 0 75 34.6 75 76z" fill="#ff9f40"/><g><path d="m76 271c-24.901 0-45 20.099-45 45 0 24.899 20.099 45 45 45s45-20.101 45-45c0-24.901-20.099-45-45-45z" fill="#ffd9b3"/></g><g><g><path d="m76 361c-41.4 0-76 33.6-76 75v76h151v-76c0-41.4-33.6-75-75-75z" fill="#665252"/></g></g><path d="m76 361v-90c24.901 0 45 20.099 45 45 0 24.899-20.099 45-45 45z" fill="#fb9"/><path d="m151 436v76h-75v-151c41.4 0 75 33.6 75 75z" fill="#4d3636"/><g><path d="m436 271c-24.901 0-45 20.099-45 45 0 24.899 20.099 45 45 45s45-20.101 45-45c0-24.901-20.099-45-45-45z" fill="#ffd9b3"/></g><g><path d="m436 361c-41.4 0-75 33.6-75 75v76h151v-76c0-41.4-34.6-75-76-75z" fill="#ff5959"/></g><path d="m436 361v-90c24.901 0 45 20.099 45 45 0 24.899-20.099 45-45 45z" fill="#fb9"/><path d="m512 436v76h-76v-151c41.4 0 76 33.6 76 75z" fill="#e63a57"/></g></svg>