<?xml version="1.0" encoding="iso-8859-1"?>
<!-- Generator: Adobe Illustrator 19.0.0, SVG Export Plug-In . SVG Version: 6.00 Build 0)  -->
<svg xmlns="http://www.w3.org/2000/svg" xmlns:xlink="http://www.w3.org/1999/xlink" version="1.1" id="Layer_1" x="0px" y="0px" viewBox="0 0 512 512" style="enable-background:new 0 0 512 512;" xml:space="preserve" width="512" height="512">
<g>
	<g>
		<g>
			<g>
				<g>
					<path style="fill:#FFE6CF;" d="M252.875,413.992l4.301,38.677h195.842l-15.266-77.982       c-5.743-29.335,3.837-59.565,25.386-80.283c46.563-44.768,48.312-95.949,48.798-114.164       c2.519-94.453-67.403-157.297-161.857-159.817c-86.792-2.314-149.121,31.632-168.937,114.82       c-1.88,7.893-1.824,16.127,0.053,24.02l1.46,6.139c1.763,7.414-0.056,15.226-4.912,21.099l-39.844,49.643       c-5.642,6.825-2.416,17.197,6.102,19.616l29.395,8.35c5.099,1.449,6.683,7.896,2.837,11.543l-9.895,9.381       c-2.332,2.211-2.013,6.013,0.655,7.804l12.725,10.458c3.12,2.564,3.529,7.166,0.944,10.269       c-1.414,1.696-12.123,11.504-12.123,11.504c-3.198,2.295-2.665,7.203,0.951,8.758l13.803,6.901l-14.672,29.343       c-5.977,16.559,7.547,33.625,25.034,31.59l38.15-4.438C242.259,396.007,251.711,403.528,252.875,413.992z"/>
				</g>
			</g>
			<g>
				<path style="fill:#EFD0B6;" d="M350.077,20.423c-12.036-0.321-23.599,0.059-34.646,1.167      c85.529,9.306,146.863,70.081,144.501,158.65c-0.486,18.215-2.235,69.396-48.798,114.164      c-21.548,20.718-31.129,50.948-25.386,80.283l15.266,77.982h52.001l-15.266-77.982c-5.743-29.335,3.837-59.565,25.386-80.283      c46.563-44.768,48.312-95.949,48.798-114.164C514.453,85.786,444.531,22.942,350.077,20.423z"/>
			</g>
			<g>
				<g>
					<path style="fill:#C7E9EA;" d="M47.491,431.59c-1.83,0-3.66-0.698-5.056-2.094c-56.579-56.58-56.579-148.642,0-205.222       c2.792-2.792,7.32-2.792,10.113,0c2.793,2.793,2.793,7.32,0,10.114c-51.003,51.003-51.003,133.991,0,184.994       c2.793,2.793,2.793,7.32,0,10.114C51.151,430.891,49.321,431.59,47.491,431.59z"/>
				</g>
				<g>
					<path style="fill:#C7E9EA;" d="M76.244,402.838c-1.83,0-3.66-0.698-5.056-2.094c-19.699-19.7-30.547-45.929-30.547-73.858       c0-27.93,10.849-54.16,30.547-73.859c2.793-2.792,7.321-2.792,10.113,0c2.793,2.793,2.793,7.32,0,10.114       c-16.997,16.997-26.358,39.635-26.358,63.745c0,24.109,9.361,46.747,26.358,63.745c2.793,2.793,2.793,7.32,0,10.114       C79.904,402.139,78.074,402.838,76.244,402.838z"/>
				</g>
				<g>
					<path style="fill:#C7E9EA;" d="M104.997,374.085c-1.83,0-3.66-0.698-5.056-2.094c-24.871-24.871-24.871-65.341,0-90.212       c2.792-2.792,7.32-2.792,10.113,0c2.793,2.793,2.793,7.32,0,10.114c-19.294,19.295-19.294,50.689,0,69.984       c2.793,2.793,2.793,7.32,0,10.114C108.657,373.386,106.827,374.085,104.997,374.085z"/>
				</g>
			</g>
		</g>
		<path style="fill:#A26BF9;" d="M453.914,491.687c10.239,0,18.391-8.574,17.875-18.8l-1.467-29.065    c-0.514-7.273-6.826-12.752-14.099-12.238l-203.726,14.392c-10.923,0.772-20.936,6.364-27.321,15.259l-17.632,24.078    c-1.938,2.647-0.048,6.374,3.233,6.374H453.914z"/>
	</g>
</g>















</svg>
