<svg height="512" viewBox="0 0 386.586 498.537" width="512" xmlns="http://www.w3.org/2000/svg"><path d="m284.334 203.644 8.41-25.641s14.797-3.915 22.601 11.255c7.804 15.169-12.618 46.338-30.235 48.957-4.883-11.866-.776-34.571-.776-34.571z" fill="#ffdbbd"/><path d="m99.083 203.644-8.41-25.641s-14.797-3.915-22.601 11.255 12.618 46.338 30.235 48.957c4.884-11.866.776-34.571.776-34.571z" fill="#ffdbbd"/><path d="m386.586 449.888s-4-15.333-8-30c-11.333-46-25.667-49.333-43.667-54.333s-77-24-92-27h-99.253c-15 3-74 22-92 27s-32.333 8.333-43.666 54.333c-4 14.667-8 30-8 30s41.077 47.289 188.043 48.635c1.343.019 9.158.019 10.5 0 146.966-1.346 188.043-48.635 188.043-48.635z" fill="#f4f4f4"/><path d="m245.649 325.81c-5.901-15.031-7.258-31.226-7.258-31.226h-90.838s-1.357 16.195-7.258 31.226c5.007 9.307 48.148 33.393 52.276 37.182h.412c4.128-3.789 47.659-27.875 52.666-37.182z" fill="#ffdbbd"/><g><path d="m240.217 306.487c-1.365-6.957-1.781-11.903-1.781-11.903h-90.838s-.511 6.073-2.259 14.229c8.274 6.807 29 22.021 48.999 22.021 20.335 0 38.941-17.129 45.879-24.347z" fill="#eabea0"/></g><path d="m192.182 78.089-.003-.005c-.07 0-.359 0-.429 0l-.003.005c-36.167.215-111.773 27.69-102.715 119.328 4.885 52.539 42.43 122.984 102.709 123.325.003.002.005.005.008.008h.429c.003-.003.005-.005.008-.008 60.279-.341 97.825-70.786 102.709-123.325 9.06-91.638-66.546-119.113-102.713-119.328z" fill="#ffdbbd"/><path d="m94.066 224.444c2.185-29.433 5.47-70.36 46.229-75.86s86.833-29.165 92.758-44c1.5 15 12.5 39 30 55s27.631 28.719 26.816 64.86c3.823-17.572 20.015-62.86-7.15-105.86s-100.165-72-163.665-21.5c-19.501 18.5-45.975 67.719-24.988 127.36z" fill="#513e36"/><path d="m212.458 377.315s-16.69-14.578-19.367-14.578l-.004.006-.004-.006c-2.676 0-19.366 14.578-19.366 14.578l-3.286 15.704s11.737 18.944 22.652 18.944c.002-.001.003-.003.004-.004.001.001.002.003.004.004 10.916 0 22.653-18.944 22.653-18.944z" fill="#2b3841"/><g><path d="m193.084 401.552h-.004-.004c-7.162.002-11.353 1.613-12.26 6.036-.731 3.564-17.813 65.617-24.431 89.624 9.965.591 20.502.961 31.659 1.063 1.343.02 9.158.02 10.5 0 10.436-.095 20.319-.43 29.71-.955-5.647-21.922-22.152-86.058-22.904-89.723-.907-4.423-5.105-6.042-12.266-6.045z" fill="#2b3841"/></g><path d="m140.917 324.055-15.948 19.433 35.948 62.317 32.166-43z" fill="#fff"/><path d="m245.478 324.055 15.947 19.433-35.947 62.317-32.271-43z" fill="#fff"/><path d="m378.586 419.888c-11.333-46-25.667-49.333-43.667-54.333-11.155-3.099-38.049-11.571-60.465-18.283-11.806 24.528-42.681 81.144-81.154 93.163-.003.014-.005.028-.008.042-.02-.006-.039-.013-.058-.02-.02.006-.039.013-.059.02-.003-.014-.005-.028-.008-.042-38.457-12.014-69.323-68.588-81.139-93.133-22.396 6.707-49.225 15.158-60.363 18.252-18 5-32.333 8.333-43.667 54.333-4 14.667-8 30-8 30s41.077 47.289 188.043 48.635c1.343.02 9.158.02 10.5 0 146.966-1.346 188.043-48.635 188.043-48.635s-3.998-15.332-7.998-29.999z" fill="#333841"/><path d="m338.811 424.425c-.111 11.984-1.266 42.969-3.891 54.234 3.868-1.385 6.327-2.308 6.327-2.308.723-9.134 2.523-30.484-2.436-51.926z" fill="#3d454e"/><path d="m47.508 424.425c.111 11.984 1.266 42.969 3.891 54.234-3.868-1.385-6.327-2.308-6.327-2.308-.723-9.134-2.524-30.484 2.436-51.926z" fill="#3d454e"/><g><g><path d="m32.453 67.897h7.085v86.652h-7.085z" fill="#fbb342"/><g><path d="m49.347 159.181c0-7.374-5.978-13.352-13.352-13.352s-13.352 5.978-13.352 13.352v93.314h26.704z" fill="#fdd148"/></g><ellipse cx="35.995" cy="125.49" fill="#fdd148" rx="13.775" ry="14.267"/></g><path d="m193.168 122.349 189.508-59.902-189.599-62.447-189.599 62.447 189.508 59.902.037.046.054-.017.054.017z" fill="#333841"/><path d="m193.835 44.101c-.036 0-.071-.002-.107-.002-.018 0-.035 0-.052 0s-.035 0-.052 0c-.036 0-.071.001-.107.002-44.546.032-79.762 10.196-103.75 25.431v74.844s44.924-18.135 103.819 4.307c.013.018.025.035.038.053.018-.007.035-.013.052-.019.018.007.035.013.052.019.013-.018.025-.035.038-.053 58.896-22.442 103.819-4.307 103.819-4.307v-74.844c-23.987-15.235-59.203-25.398-103.75-25.431z" fill="#3d454e"/></g></svg>