<svg id="Capa_1" enable-background="new 0 0 511.667 511.667" height="512" viewBox="0 0 511.667 511.667" width="512" xmlns="http://www.w3.org/2000/svg"><path d="m240.707 30.25-75.329 240.703 75.329 240.714c132.725 0 240.704-107.979 240.704-240.705s-107.978-240.712-240.704-240.712z" fill="#ff2828"/><path d="m.002 270.962c0 132.726 107.979 240.705 240.705 240.705v-481.417c-132.726 0-240.705 107.986-240.705 240.712z" fill="#ff7037"/><path d="m240.707 89.166-56.892 181.788 56.892 181.796c100.239 0 181.789-81.55 181.789-181.79 0-100.238-81.55-181.794-181.789-181.794z" fill="#e1ebf0"/><path d="m58.917 270.961c0 100.24 81.55 181.79 181.79 181.79v-363.585c-100.239 0-181.79 81.556-181.79 181.795z" fill="#fff5f5"/><path d="m240.707 148.082-38.454 122.873 38.454 122.879c67.753 0 122.874-55.121 122.874-122.874s-55.121-122.878-122.874-122.878z" fill="#ff2828"/><path d="m117.833 270.96c0 67.753 55.121 122.874 122.874 122.874v-245.752c-67.753 0-122.874 55.125-122.874 122.878z" fill="#ff7037"/><path d="m240.707 206.999-20.016 63.958 20.016 63.961c35.267 0 63.958-28.691 63.958-63.958 0-35.268-28.691-63.961-63.958-63.961z" fill="#e1ebf0"/><path d="m176.748 270.959c0 35.267 28.692 63.958 63.958 63.958v-127.918c-35.266 0-63.958 28.693-63.958 63.96z" fill="#fff5f5"/><path d="m207.651 176.155h225.718v30h-225.718z" fill="#04303e" transform="matrix(.707 -.707 .707 .707 -41.292 282.623)"/><path d="m447.992 0-51.541 51.539-15.007 78.682 78.682-15.007 51.539-51.541z" fill="#07485e"/></svg>