<svg id="Capa_1" enable-background="new 0 0 512 512" height="512" viewBox="0 0 512 512" width="512" xmlns="http://www.w3.org/2000/svg"><g><g><path d="m418.599 135.899c-13.798-78.9-82.199-135.899-162.599-135.899s-148.801 56.999-162.599 135.899c-9.3 54.6 8.699 109.801 48.3 147.9 24.488 23.454 39.299 56.709 39.299 91.201v15l30 31h45 45l30-31v-15c0-34.453 14.784-67.722 39.3-91.201 39.6-38.099 57.599-93.3 48.299-147.9z" fill="#fed843"/><path d="m331 390v-15c0-34.453 14.784-67.722 39.3-91.201 39.6-38.099 57.599-93.3 48.3-147.9-13.799-78.9-82.2-135.899-162.6-135.899v421h45z" fill="#fabe2c"/><g fill="#fed843"><path d="m33.485 46.254h29.997v62.459h-29.997z" transform="matrix(.707 -.707 .707 .707 -40.588 56.977)"/><path d="m0 150h61v30h-61z"/><path d="m17.614 237.189h62.397v29.997h-62.397z" transform="matrix(.707 -.707 .707 .707 -164.027 108.38)"/></g><path d="m256 390h-75v47c0 41.4 33.6 75 75 75s75-33.6 75-75v-47z" fill="#edf5ff"/><path d="m331 437v-47h-75v122c41.4 0 75-33.6 75-75z" fill="#d5e8fe"/></g><g><path d="m432.284 62.488h62.458v30h-62.458z" fill="#fabe2c" transform="matrix(.707 -.707 .707 .707 80.965 350.444)"/></g><g><path d="m451 150h61v30h-61z" fill="#fabe2c"/></g><g><path d="m448.187 220.98h30v62.414h-30z" fill="#fabe2c" transform="matrix(.707 -.707 .707 .707 -42.657 401.392)"/></g><g><path d="m301 135c0 14.25-6.86 27.8-18.34 36.25-7.3 5.38-11.66 13.99-11.66 23.04v15.71h-30v-15.71c0-14.5 5.46-28.46 15-39.12 2.65-2.96 5.62-5.67 8.88-8.07 3.89-2.87 6.12-7.28 6.12-12.1 0-8.27-6.73-15-15-15s-15 6.73-15 15v15h-30v-15c0-24.81 20.19-45 45-45s45 20.19 45 45z" fill="#47568c"/></g><g><path d="m241 240h30v30h-30z" fill="#47568c"/></g><g fill="#29376d"><path d="m256 240h15v30h-15z"/><path d="m301 135c0 14.25-6.86 27.8-18.34 36.25-7.3 5.38-11.66 13.99-11.66 23.04v15.71h-15v-54.83c2.65-2.96 5.62-5.67 8.88-8.07 3.89-2.87 6.12-7.28 6.12-12.1 0-8.27-6.73-15-15-15v-30c24.81 0 45 20.19 45 45z"/></g></g></svg>