<svg id="Capa_1" enable-background="new 0 0 512 512" height="512" viewBox="0 0 512 512" width="512" xmlns="http://www.w3.org/2000/svg"><g><g><g><g><g><g><path d="m0 0v108.438l226.047 14.503 19.244-87.232-19.244-35.709z" fill="#543f87"/><g><g><g><g><path d="m292.123 0h-66.076v122.941l103.286 6.42z" fill="#403069"/></g><path d="m378.163 0h-86.04l-66.076 108.438 76.075 20.923 76.041-20.923z" fill="#fff69e"/><g><g><g><path d="m40 40h30v30h-30z" fill="#ff4283"/></g></g></g><path d="m226.047 108.438h-226.047v322.308h226.047l31.456-171.13z" fill="#ebf3fe"/></g></g><path d="m462 0h-86.04l-65.283 108.438 85.282 20.923 66.041-20.923z" fill="#fdd82d"/><path d="m226.047 108.438h235.953v322.308h-235.953z" fill="#cde8ff"/></g></g></g><g><g><g><g><g><path d="m100 40h30.001v30h-30.001z" fill="#939ef0"/></g></g><g><g><path d="m160 40h30.001v30h-30.001z" fill="#00c1c3"/></g></g></g></g></g></g></g><g><path d="m181.151 151.375v140.707l44.896-24.91 38.461-45.443-38.461-45.444z" fill="#ff4283"/><path d="m226.047 176.285v90.887l81.611-45.443z" fill="#e7036f"/></g><path d="m374.591 327.473v30h-148.544l-25.973-13.677 25.973-16.323z" fill="#6678ea"/><path d="m77.504 327.473h148.543v30h-88.204l-15-15-15 15h-30.339z" fill="#939ef0"/><g><g><path d="m107.843 299.769h30v57.705h-30z" fill="#543f87"/></g></g></g><g><path d="m269.59 390.797c0 66.832 54.373 121.203 121.205 121.203l32.474-117.015-32.474-125.393c-66.832 0-121.205 54.372-121.205 121.205z" fill="#02f2c8"/><path d="m390.795 269.592v242.408c66.833 0 121.205-54.371 121.205-121.203 0-66.833-54.372-121.205-121.205-121.205z" fill="#00c1c3"/></g><g><path d="m343.756 362.988 21.213 21.213 10.826-10.826v49.729h-42.157v30h57.157l8.441-57.211-8.441-79.943z" fill="#eff5fe"/><path d="m447.952 423.104h-42.157v-49.728l10.826 10.825 21.212-21.213-47.038-47.039v.001 137.154h57.157z" fill="#cde8ff"/></g></g></svg>