<?xml version="1.0" encoding="iso-8859-1"?>
<!-- Generator: Adobe Illustrator 19.0.0, SVG Export Plug-In . SVG Version: 6.00 Build 0)  -->
<svg version="1.1" id="Capa_1" xmlns="http://www.w3.org/2000/svg" xmlns:xlink="http://www.w3.org/1999/xlink" x="0px" y="0px"
	 viewBox="0 0 512 512" style="enable-background:new 0 0 512 512;" xml:space="preserve">
<circle style="fill:#FFECB3;" cx="256" cy="256" r="256"/>
<path style="fill:#FFD863;" d="M512,256c0-9.861-0.577-19.585-1.663-29.156L408.186,124.693L103.814,201.9L238.64,336.726
	l-132.783,59.43l113.177,113.177C231.105,511.079,243.444,512,256,512C397.385,512,512,397.385,512,256z"/>
<rect x="103.81" y="124.69" style="fill:#333333;" width="304.37" height="77.21"/>
<rect x="255.67" y="124.69" style="fill:#1A1A1A;" width="152.52" height="77.21"/>
<rect x="353.99" y="149.19" style="fill:#8CC63F;" width="28.21" height="28.21"/>
<rect x="314.83" y="149.19" style="fill:#FFDC00;" width="28.21" height="28.21"/>
<rect x="103.81" y="217.4" style="fill:#333333;" width="304.37" height="77.21"/>
<rect x="255.67" y="217.4" style="fill:#1A1A1A;" width="152.52" height="77.21"/>
<rect x="353.99" y="241.9" style="fill:#8CC63F;" width="28.21" height="28.21"/>
<rect x="314.83" y="241.9" style="fill:#FFDC00;" width="28.21" height="28.21"/>
<rect x="103.81" y="310.1" style="fill:#333333;" width="304.37" height="77.21"/>
<rect x="255.67" y="310.1" style="fill:#1A1A1A;" width="152.52" height="77.21"/>
<rect x="353.99" y="334.6" style="fill:#8CC63F;" width="28.21" height="28.21"/>
<rect x="314.83" y="334.6" style="fill:#FFDC00;" width="28.21" height="28.21"/>
<circle style="fill:#39B54A;" cx="172.53" cy="334.31" r="90.94"/>
<path style="fill:#009245;" d="M81.582,334.333c0.013,50.216,40.725,90.92,90.944,90.92s90.931-40.704,90.944-90.92H81.582z"/>
<polygon style="fill:#FFFFFF;" points="141.425,274.441 232.96,334.309 141.425,394.178 "/>
<polygon style="fill:#E0E0E0;" points="232.923,334.333 141.425,334.333 141.425,394.178 "/>
<g>
</g>
<g>
</g>
<g>
</g>
<g>
</g>
<g>
</g>
<g>
</g>
<g>
</g>
<g>
</g>
<g>
</g>
<g>
</g>
<g>
</g>
<g>
</g>
<g>
</g>
<g>
</g>
<g>
</g>
</svg>
