<svg enable-background="new 0 0 512 512" height="512" viewBox="0 0 512 512" width="512" xmlns="http://www.w3.org/2000/svg"><g id="_x36_0_Search"><g><path d="m332.447 214.707h31.192v107.248h-31.192z" fill="#acbadf" transform="matrix(.707 -.707 .707 .707 -87.8 324.696)"/><path d="m130.875 255.355c56.4 56.4 147.826 56.4 204.195.03 56.4-56.4 56.4-147.826 0-204.226-56.368-56.368-147.795-56.368-204.194.031-56.37 56.37-56.37 147.796-.001 204.165z" fill="#f78721"/><path d="m130.887 255.347c56.401 56.4 147.814 56.4 204.171.044 9.216-9.26 16.933-19.447 23.151-30.25-55.166 31.75-126.78 24.033-173.964-23.151-47.14-47.14-54.857-118.799-23.151-173.964-10.804 6.218-20.99 13.935-30.207 23.151-56.4 56.4-56.4 147.813 0 204.17z" opacity=".1"/><path d="m312.32 232.634c43.759-43.759 43.759-114.962-.001-158.722-43.743-43.743-114.931-43.729-158.691.03-43.743 43.743-43.744 114.919-.001 158.661 43.761 43.761 114.95 43.774 158.693.031z" fill="#e8f1f8"/><path d="m153.642 232.593c43.745 43.788 114.918 43.788 158.662.044 3.925-3.881 7.452-8.026 10.671-12.303-43.921 32.588-106.451 28.928-146.227-10.848-39.82-39.82-43.392-102.35-10.716-146.271-4.322 3.219-8.467 6.791-12.391 10.715-43.744 43.745-43.744 114.918.001 158.663z" opacity=".1"/><path d="m450.458 414.368-102.415-102.416c-12.045-12.046-12.045-31.575 0-43.621 12.046-12.045 31.575-12.045 43.621 0l102.416 102.416c12.045 12.045 12.045 31.575 0 43.621-12.046 12.045-31.576 12.045-43.622 0z" fill="#474747"/><path d="m348.023 311.968 102.438 102.394c11.78 11.868 31.37 12.243 43.612 0 2.557-2.557 4.586-5.468 6.041-8.555-4.189 1.984-8.731 2.998-13.229 2.998-7.938 0-15.787-3.042-21.828-9.04l-102.438-102.394c-9.481-9.48-11.51-23.591-5.997-35.057-3.087 1.411-6.041 3.44-8.599 5.997-12.039 12.084-12.039 31.574 0 43.657z" opacity=".1"/><g><path d="m31.075 388.231c-2.028-2.079-1.987-5.412.093-7.435l74.979-73.074c1.884-1.843 4.826-1.997 6.911-.38l74.979 58.61c2.285 1.792 2.69 5.093.904 7.383-1.792 2.275-5.083 2.69-7.383.904l-71.359-55.781-71.689 69.866c-2.08 2.028-5.417 1.986-7.435-.093z" fill="#474747"/></g><path d="m60.784 451.869v43.189c0 4.449-3.607 8.056-8.056 8.056h-35.777c-4.449 0-8.056-3.607-8.056-8.056v-43.189c0-4.449 3.607-8.056 8.056-8.056h35.777c4.449 0 8.056 3.606 8.056 8.056z" fill="#fdcf17"/><path d="m60.794 451.869v43.189c0 4.457-3.625 8.056-8.056 8.056h-35.795c-4.431 0-8.056-3.599-8.056-8.056v-.806c20.838-3.357 36.762-21.456 36.762-43.234v-7.205h7.089c4.431 0 8.056 3.598 8.056 8.056z" opacity=".1"/><path d="m135.763 377.581v117.476c0 4.449-3.607 8.056-8.056 8.056h-35.776c-4.449 0-8.056-3.607-8.056-8.056v-117.476c0-4.449 3.607-8.056 8.056-8.056h35.777c4.449 0 8.055 3.607 8.055 8.056z" fill="#475da9"/><path d="m135.774 377.581v117.476c0 4.457-3.625 8.056-8.056 8.056h-35.796c-4.431 0-8.056-3.599-8.056-8.056v-.806c20.838-3.357 36.762-21.456 36.762-43.234v-81.493h7.089c4.432.001 8.057 3.599 8.057 8.057z" opacity=".1"/><path d="m210.743 427.106v67.951c0 4.449-3.607 8.056-8.056 8.056h-35.777c-4.449 0-8.056-3.607-8.056-8.056v-67.951c0-4.449 3.607-8.056 8.056-8.056h35.777c4.449 0 8.056 3.607 8.056 8.056z" fill="#f14f4a"/><path d="m210.753 427.106v67.951c0 4.457-3.625 8.056-8.056 8.056h-35.795c-4.431 0-8.056-3.599-8.056-8.056v-.806c20.838-3.357 36.762-21.456 36.762-43.234v-31.967h7.089c4.431 0 8.056 3.598 8.056 8.056z" opacity=".1"/><g fill="#acbadf"><path d="m57.798 384.527c0 12.737-10.314 22.989-22.989 22.989s-22.927-10.252-22.927-22.989c0-12.674 10.252-22.926 22.927-22.926s22.989 10.252 22.989 22.926z"/><path d="m132.778 311.457c0 12.737-10.314 22.989-22.989 22.989s-22.927-10.252-22.927-22.989c0-12.674 10.252-22.926 22.927-22.926s22.989 10.252 22.989 22.926z"/><path d="m207.758 370.066c0 12.737-10.314 22.989-22.989 22.989s-22.927-10.252-22.927-22.989c0-12.674 10.252-22.926 22.927-22.926s22.989 10.252 22.989 22.926z"/></g><path d="m308.234 153.243c0 41.593-33.69 75.284-75.283 75.284-41.534 0-75.224-33.691-75.224-75.284 0-41.534 33.69-75.224 75.224-75.224 41.592 0 75.283 33.691 75.283 75.224z" fill="#0e9c4a"/><g><path d="m218.808 173.733-12.574-12.574c-2.054-2.054-2.054-5.381 0-7.435s5.381-2.054 7.435 0l8.857 8.857 29.765-29.765c2.054-2.054 5.381-2.054 7.435 0s2.054 5.381 0 7.435l-33.482 33.482c-2.055 2.053-5.382 2.053-7.436 0z" fill="#e8f1f8"/></g></g></g></svg>