<svg id="Layer_1" enable-background="new 0 0 512 512" height="512" viewBox="0 0 512 512" width="512" xmlns="http://www.w3.org/2000/svg"><g><path d="m46.212 402.264 403.999 6.687c28.519-40.05 45.293-89.042 45.293-141.954 0-135.311-109.691-245.002-245.002-245.002s-245.003 109.692-245.003 245.003c0 50.006 14.994 96.502 40.713 135.266z" fill="#ffdd40"/><path d="m162.878 57.122c0 17.997-14.59 32.587-32.587 32.587h319.92v-32.587z" fill="#becaf5"/><path d="m46.212 57.122v32.587h86.119c17.997 0 32.587-14.59 32.587-32.587z" fill="#3c58a0"/><path d="m141.575 87.668.798.427c-1.758 3.695-8.222 18.452-8.68 36.459-.487 19.114 5.846 45.888 38.678 65.149v104.844c-1.834 1.765-10.402 10.6-10.681 21.814-.158 6.37 2.412 12.31 7.64 17.657v107.116c-1.276 1.7-7.585 10.634-9.597 23.522-1.948 12.48 1.001 23.291 6.016 32.278 26.41 9.74 54.958 15.066 84.752 15.066 47.311 0 91.487-13.415 128.94-36.642l34.917-26.216c13.364-12.03 25.398-25.509 35.853-40.19v-321.284z" fill="#deeeff"/><path d="m46.212 87.668v314.596c28.821 43.44 71.12 77.159 120.933 95.186-17.455-29.913 3.185-55.977 3.185-55.977v-92.56-15.306c-18.828-18.828 3.041-38.628 3.041-38.628v-105.85c-63.576-36.852-29.674-101.461-29.674-101.461h-97.485z" fill="#d3dcfb"/><path d="m414.622 0h-257.51s-9.571 9.993 0 19.563l1.306 19.012s-8.141 12.315 4.46 20.444h287.332v-23.43c0-19.574-16.015-35.589-35.588-35.589z" fill="#2a428c"/><path d="m81.8 0c-19.573 0-35.588 16.015-35.588 35.589v23.43h118.707c-12.601-8.129-4.46-20.444-4.46-20.444l-1.306-19.012c-9.571-9.571 0-19.563 0-19.563h-77.353z" fill="#1c2e7a"/><path d="m101.48 29.51c0 6.336-5.136 11.472-11.472 11.472s-11.472-5.136-11.472-11.472 5.136-11.472 11.472-11.472c6.336-.001 11.472 5.136 11.472 11.472z" fill="#ff4155"/><ellipse cx="121.727" cy="29.51" fill="#ffdd40" rx="11.472" ry="11.472" transform="matrix(.993 -.122 .122 .993 -2.694 15.094)"/><ellipse cx="153.446" cy="29.51" fill="#88ce65" rx="11.472" ry="11.472" transform="matrix(.924 -.383 .383 .924 .388 60.967)"/><path d="m263.21 29.51c0-4.227 3.426-7.653 7.653-7.653h-68.27c-4.226 0-7.653 3.426-7.653 7.653s3.426 7.653 7.653 7.653h68.27c-4.227 0-7.653-3.426-7.653-7.653z" fill="#3c58a0"/><path d="m326.378 29.51c0-4.227-3.426-7.653-7.653-7.653h-49.903c-4.227 0-7.653 3.426-7.653 7.653s3.426 7.653 7.653 7.653h49.903c4.227 0 7.653-3.426 7.653-7.653z" fill="#6289cc"/><g><path d="m411.214 37.163h-9.975c-4.227 0-7.653-3.426-7.653-7.653s3.426-7.653 7.653-7.653h9.975c4.227 0 7.653 3.426 7.653 7.653s-3.426 7.653-7.653 7.653z" fill="#6289cc"/></g><g><path d="m376.535 37.163h-9.976c-4.227 0-7.653-3.426-7.653-7.653s3.426-7.653 7.653-7.653h9.976c4.227 0 7.653 3.426 7.653 7.653s-3.426 7.653-7.653 7.653z" fill="#3c58a0"/></g><g><path d="m170.33 348.913h-52.655c-4.227 0-7.653-3.426-7.653-7.653s3.426-7.653 7.653-7.653h52.655c4.227 0 7.653 3.426 7.653 7.653s-3.426 7.653-7.653 7.653z" fill="#49b1f7"/></g><g><g><path d="m288.113 379.767h-170.438c-4.227 0-7.653-3.426-7.653-7.653s3.426-7.653 7.653-7.653h170.438c4.227 0 7.653 3.426 7.653 7.653s-3.427 7.653-7.653 7.653z" fill="#becaf5"/></g><g><path d="m288.113 410.621h-170.438c-4.227 0-7.653-3.426-7.653-7.653s3.426-7.653 7.653-7.653h170.438c4.227 0 7.653 3.426 7.653 7.653s-3.427 7.653-7.653 7.653z" fill="#becaf5"/></g><g><path d="m288.113 441.473h-170.438c-4.227 0-7.653-3.426-7.653-7.653s3.426-7.653 7.653-7.653h170.438c4.227 0 7.653 3.426 7.653 7.653s-3.427 7.653-7.653 7.653z" fill="#becaf5"/></g></g><path d="m223.615 150.74c-10.682 0-19.341 8.659-19.341 19.341v65.303c.001 10.681 8.66 19.34 19.341 19.34s19.341-8.659 19.341-19.341v-65.302c0-10.681-8.66-19.341-19.341-19.341z" fill="#9bd8f9"/><path d="m173.371 189.129c-10.682 0-19.341 8.659-19.341 19.341v26.913c0 10.682 8.659 19.341 19.341 19.341s19.341-8.659 19.341-19.341v-26.913c0-10.682-8.66-19.341-19.341-19.341z" fill="#73c3f9"/><path d="m223.615 252.713c-10.682 0-19.341-8.659-19.341-19.341v54.568h38.682v-54.568c0 10.682-8.66 19.341-19.341 19.341z" fill="#73c3f9"/><path d="m173.371 252.713c-10.682 0-19.341-8.659-19.341-19.341v54.568h38.682v-54.568c0 10.682-8.66 19.341-19.341 19.341z" fill="#49b1f7"/><path d="m142.468 287.94v-28.065c0-10.682-8.66-19.341-19.341-19.341s-19.341 8.659-19.341 19.341v28.065z" fill="#1fa2ea"/><g><path d="m248.847 294.979h-152.781c-3.945 0-7.143-3.198-7.143-7.143s3.198-7.143 7.143-7.143h152.781c3.945 0 7.143 3.198 7.143 7.143 0 3.946-3.198 7.143-7.143 7.143z" fill="#9bd8f9"/></g><path d="m391.803 392.091c-8.927 0-16.231-7.304-16.231-16.231v-53.892c0-8.927 7.304-16.231 16.231-16.231 8.927 0 16.231 7.304 16.231 16.231v53.892c0 8.927-7.304 16.231-16.231 16.231z" fill="#becaf5"/><path d="m349.103 163.238c2.873 7.556 8.649 13.255 17.177 16.959-1.371 3.212-3.991 11.03-.847 18.289 2.381 5.495 7.51 9.415 15.253 11.658l9.525 34.989c-.912 2.048-3.729 9.438-.793 16.921 2.111 5.378 6.682 9.528 13.599 12.354-1.749 4.686-6.387 19.658-.055 32.743 4.006 8.281 11.634 14.144 22.683 17.452 41.215-14.07 70.856-53.125 70.856-99.104 0-57.823-46.875-104.698-104.698-104.698-14.065 0-27.479 2.78-39.731 7.81-2.171 4.89-8.253 20.734-2.969 34.627z" fill="#2a428c"/><path d="m404.97 273.556c-23.268-8.509-13.167-28.285-13.167-28.285l-9.893-36.343c-25.713-6.89-13.606-29.518-13.606-29.518-33.643-13.237-14.196-51.61-14.196-51.611-39.196 15.133-67.002 53.167-67.002 97.699 0 57.823 46.875 104.698 104.698 104.698 12.758 0 24.982-2.285 36.288-6.463-40.523-10.58-23.122-50.177-23.122-50.177z" fill="#1c2e7a"/><path d="m366.28 180.197c-1.371 3.212-3.991 11.03-.847 18.289 2.381 5.495 7.51 9.415 15.253 11.658l9.525 34.989c-.912 2.048-3.729 9.438-.793 16.921 1.992 5.075 6.176 9.055 12.453 11.861 26.057-2.663 49.089-15.54 65.019-34.572 6.691-7.994 6.691-19.695 0-27.689-17.953-21.45-44.926-35.093-75.086-35.093-8.962 0-17.639 1.213-25.885 3.469.121.056.238.114.361.167z" fill="#deeeff"/><path d="m391.803 274.437c4.463 0 8.853-.306 13.158-.884-23.256-8.51-13.158-28.281-13.158-28.281l-9.893-36.343c-25.712-6.89-13.607-29.516-13.607-29.516-20.497 5.051-38.455 16.554-51.585 32.242-6.691 7.994-6.691 19.695 0 27.689 17.953 21.45 44.925 35.093 75.085 35.093z" fill="#becaf5"/><path d="m365.434 198.486c2.381 5.495 7.51 9.415 15.253 11.658l9.525 34.989c-.912 2.048-3.729 9.438-.793 16.921 1.892 4.818 5.763 8.647 11.52 11.424 20.45-4.6 35.825-24.333 35.825-47.98 0-27.059-20.129-48.994-44.96-48.994-10.347 0-19.87 3.819-27.468 10.22-.615 3.5-.655 7.717 1.098 11.762z" fill="#49b1f7"/><path d="m391.803 274.493c3.964 0 7.806-.564 11.467-1.614-21.045-8.832-11.467-27.608-11.467-27.608l-9.893-36.343c-17.38-4.658-17.478-16.498-15.719-23.688-11.689 8.847-19.348 23.575-19.348 40.259.001 27.059 20.13 48.994 44.96 48.994z" fill="#1fa2ea"/><ellipse cx="391.803" cy="225.499" fill="#218ee8" rx="18.144" ry="19.772"/><path d="m428.091 200.131c0 6.371-4.739 11.535-10.586 11.535-5.846 0-10.586-5.165-10.586-11.535 0-6.371 4.739-11.535 10.586-11.535s10.586 5.164 10.586 11.535z" fill="#73c3f9"/><path d="m391.803 359.08c-12.405 0-22.555 10.15-22.555 22.555v74.89c0 7.849 4.066 14.791 10.192 18.834 12.422-7.704 24.107-16.485 34.918-26.217v-67.507c0-12.406-10.149-22.555-22.555-22.555z" fill="#ff4155"/><g><path d="m391.804 340.197c-63.245 0-114.698-51.453-114.698-114.698 0-22.095 6.299-43.55 18.215-62.045 11.598-18.001 27.927-32.373 47.22-41.562 4.985-2.374 10.953-.259 13.328 4.729 2.375 4.986.258 10.953-4.728 13.328-32.824 15.633-54.034 49.213-54.034 85.55 0 52.217 42.481 94.698 94.698 94.698 9.06 0 18.017-1.275 26.622-3.791 5.303-1.548 10.853 1.492 12.404 6.793 1.549 5.301-1.492 10.854-6.793 12.404-10.431 3.048-21.275 4.594-32.234 4.594z" fill="#a8b7ef"/></g><g><path d="m421.227 336.008c-4.328 0-8.317-2.833-9.594-7.197-1.549-5.301 1.492-10.855 6.793-12.404 19.248-5.626 36.576-17.568 48.793-33.625 12.614-16.58 19.282-36.388 19.282-57.282 0-52.216-42.481-94.697-94.697-94.697-14.238 0-27.92 3.078-40.664 9.147-4.984 2.374-10.953.259-13.328-4.729-2.375-4.986-.258-10.953 4.729-13.328 15.452-7.359 32.026-11.091 49.264-11.091 63.244 0 114.697 51.453 114.697 114.697 0 25.306-8.079 49.302-23.365 69.392-14.787 19.437-35.775 33.895-59.099 40.713-.937.273-1.883.404-2.811.404z" fill="#becaf5"/></g><ellipse cx="396.547" cy="385.048" fill="#ff7186" rx="12.934" ry="12.934" transform="matrix(.23 -.973 .973 .23 -69.308 682.521)"/></g></svg>