<svg height="512" viewBox="0 0 64 64" width="512" xmlns="http://www.w3.org/2000/svg"><g id="_24_Market_analysis" data-name="24 Market analysis"><path d="m24 36h-4a1 1 0 0 0 -1 1v6h6v-6a1 1 0 0 0 -1-1z" fill="#ff3c38"/><path d="m31 34h-4a1 1 0 0 0 -1 1v8h6v-8a1 1 0 0 0 -1-1z" fill="#3abeff"/><path d="m38 32h-4a1 1 0 0 0 -1 1v10h6v-10a1 1 0 0 0 -1-1z" fill="#8bc34a"/><path d="m45 27h-4a1 1 0 0 0 -1 1v15h6v-15a1 1 0 0 0 -1-1z" fill="#ffcf4d"/><path d="m62 32a30.0326 30.0326 0 0 0 -31-29.9836v8.9973a.0092.0092 0 0 0 .01.0092 21.0015 21.0015 0 0 1 15.1233 36.5111v.013s6.8846 5.8612 7.08 5.6658a29.8048 29.8048 0 0 0 8.7867-21.2128z" fill="#ffcf4d"/><path d="m10.0915 11.5056s6.8636 5.84 7.0589 5.6448a20.8882 20.8882 0 0 1 15.8496-6.1273v-9.0069a29.8415 29.8415 0 0 0 -22.9085 9.4894z" fill="#ff3c38"/><path d="m17.8737 16.46-6.3681-6.3681a30.0021 30.0021 0 0 0 -7.8317 31.79c.1445.4121 8.585-2.7139 8.498-2.9639a21.0046 21.0046 0 0 1 5.7018-22.458z" fill="#3abeff"/><path d="m47.54 46.1263a21.0028 21.0028 0 0 1 -35.6768-8.1608l-8.5032 2.9681a30.0008 30.0008 0 0 0 50.5485 11.5608z" fill="#8bc34a"/><path d="m21.999 32a1.0047 1.0047 0 0 1 -.2734-1.9619l13.8344-3.9522 6.8594-4.8994a1 1 0 0 1 1.1621 1.627s-7.1963 5.1162-7.3066 5.1484c-.0005 0-14.1841 4.0381-14.2759 4.0381z" fill="#46464e"/><path d="m47 43h-30a1.0006 1.0006 0 0 1 0-2h30a1.0006 1.0006 0 0 1 0 2z" fill="#46464e"/><path d="m24 31a2 2 0 0 1 -4 0 2 2 0 0 1 4 0z" fill="#ff3c38"/><path d="m31 29.0059a2 2 0 0 1 -4 0 2 2 0 0 1 4 0z" fill="#3abeff"/><path d="m38 27.0059a2 2 0 0 1 -4 0 2 2 0 0 1 4 0z" fill="#8bc34a"/><path d="m45 22.0059a2 2 0 0 1 -4 0 2 2 0 0 1 4 0z" fill="#ffcf4d"/></g></svg>